<?xml version="1.0" encoding="UTF-8"?>
<svg id="Calque_1" xmlns="http://www.w3.org/2000/svg" version="1.1" viewBox="0 0 1000 500">
  <!-- Generator: Adobe Illustrator 29.5.1, SVG Export Plug-In . SVG Version: 2.1.0 Build 141)  -->
  <defs>
    <style>
      .st0 {
        fill: #fff;
        opacity: .1;
      }
    </style>
  </defs>
  <path class="st0" d="M957.82,806.31l-13.03-1.46h-.66c-11.16-1.39-22.47-1.01-33.66,0h-1.97c-1.49.56-3.13.56-4.62,0h-.66c-23.61,1.24-48.71.76-71.94-3.96h-.66c-8.66-.91-16.08-1.99-22.22-9.09l-11.82-13.31-.93-.05c-3.21-3.31-7.02-8.79-11.89-9.24h0l-.2-1.09c-4.95-2.12-10.4-4.19-15.63-4.85h0c-.61-1.16-1.79-.96-2.65-1.31h0c-9.59-4.47-11.72-8.89-7.57-19.16.53-3.71.1-7.45-1.31-11.24.98-6.59-1.99-11.64-8.91-15.15-.15-.1-.48.1-.66,0-1.04-1.13-2.2-2.05-3.45-2.81.95.38,1.96.57,2.65.44,3.91,1.59,8.16,3.53,10.58,7.17,2.83,6.99,10.15,12.45,17.27,9.06h0c10-2.09,18.58,1.16,27.72,4.62l.93,1.69c11.34,8,22.3,16.92,31.66,26.74,4.01,3.38,9.06,4.92,14.29,5.38,25.98-1.06,50.02,5.81,73.55,14.39,2.25.15,2.65-2.15,1.79-3.84-1.97-3.91-22.09-12.98-26.61-13.76-.38-.05-.81.15-1.24.43-7.85-2.75-16.44-4.19-25.07-3.96-3.16-1.34-8.11-2.02-11.46-1.69l-3.06-.96-.56-.86c-10.02-2.75-20.15-6.67-24.16-16.84-7.17-8.69-12.8-17.73-16.29-28.78l-9.82-26.79c-.81-2.07-2.1-3.84-2.65-5.28h0c-.35-3-1.21-5.66-2.65-7.93-.08-.2.08-.45,0-.66v.03h-.03c-7.63-21.74-10.58-44.29-13.13-67.09-3.71-20.17-7.93-40.25-12.6-60.25.38-7.63-1.39-9.39-5.3-5.35l-7.95,10c-3.43,1.79-4.95,3.94-4.57,6.49-.08,1.01-.51,1.67-1.31,1.97-1.18.72-2.21,1.82-3.1,3.08,2.99-5.61,5.97-11.17,8.96-16.67l6.67-8.21c2.05-1.34,4.34-3.41,5.3-5.71,2.4-22.07,4.75-45.22,2.75-67.64-4.17-18.58-5.91-37.19-5.2-55.9-.25-2.3-1.57-5.35-4.14-3.46h-.03c-2.5,4.07-3.94,8.11-7.5,11.64-1.89,1.89-6.26,4.14-7.7,6.01-5,6.44-6.69,16.49-9.87,23.94-.28.68-.88,1.74-1.31,2.65h0c-1.04,2.25-3,6.44-4.62,8.26-6.79,7.57-11.31,6.77-20.48,7.57-1.74-.15-3.09-.17-4.44.02,1.21-.84,2.18-2.57,2.67-3.76.56-1.36.63-2.58.45-4.04l-7.04-52.62c-1.89-5.83-5.02-11.21-9.44-16.13-1.57-4.39-.43-8.03-.81-12.22-.81-8.79-2.05-18.96-4.49-27.4-.02-.05-.04-.09-.06-.14.03.03.05.08.08.11-.16-.66.05-1.62-.3-2.62-.5-1.41-1.69-2.25-2.35-3.31,0,.04.02.09.03.13-.02-.03-.03-.07-.05-.11-.28-.45-1.04-.86-1.31-1.31-.04-.03-.06-.07-.09-.1.03.01.06.02.09.03-.56-.94-1.47-2.44-1.94-3.26.11.21.16.39.18.56-.06-.19-.16-.34-.21-.54-2.15-3.86-6.01-11.79-7.57-15.86-3.23-8.46-2.63-16.97-11.61-22.04-2.17-1.21-4.9-1.67-7.15-3.41-6.64-5.2-5.3-17.73-6.41-25.22-3.23-21.74-13.28-31.61-29.04-45.27-17.55-15.2-28.91-9.49-48.2-17.47-7.42-3.06-15-7.25-20.6-13.05-2.35-2.42-7.98-11.26-10.6-11.89-4.37-1.06,1.54,9.04,2.32,10.25,7.57,11.54,18.33,20.2,31.44,24.69,7.02,2.42,14.8,2.3,21.66,5.08.17.05.32.12.49.17,2.48,1.07,5.91,3.02,8.1,4.4h0c.77.47,1.47,2.13,3.22,1.97.03,0,.06.04.09.05,8.03,7.1,23.61,20.76,25.93,31.16,1.24,5.61.4,9.52.4,14.72-.1,13.28,1.54,27.4-8.84,37.32-5.91,5.66-21.71,11.56-29.77,10.58-3.71-.45-2.47-4.55-.86-6.87,3.31-4.8,8.43-8.96,10.12-14.95,3.06-10.78-.68-31.39-6.44-41.08-1.11-1.87-2.4-3.61-4.44-4.47-.38.53.56,8.03.76,9.47,1.31,9.32,5.81,24.57,2.68,33.23-3.81,10.53-14.37,19.14-24.87,22.65-1.99.68-4.34,1.82-6.46,1.19l-12.32-8.86c-.2-.98,8.84-9.67,6.14-15.96-.28-.61-1.54-1.44-1.89-1.44-.96.1-3.94,9.17-6.29,10.23-2.98,1.34-6.54-3.99-8.18-3.66-2.05.4-4.09,3.48-5.68,4.27-.45.2-3.69,1.04-3.86.93-.2-.1-2.2-3.38-2.4-3.86-1.79-4.19-3.08-13.41-3.61-18.18-.3-2.75.61-6.14-.51-8.74-1.57-3.66-6.26-5.93-8.74-8.43-1.24-1.26-6.84-8.51-7.3-9.87-3.13-9.27,5.66-24.72,8.81-33.51,9.04-25.25-13.31-27.09-28.51-37.87-4.8-3.41-9.85-9.24-14.32-12.12-2.45-1.57-10.98-1.46-14.11-1.36h-.11l.11.02-.04.13c-.34-.08-.64-.12-.95-.17.36,0,.66.02.89.02l-14.2-3.26c-.96-.25-1.06.14-1.51.6h-.03v.05h.03c-3,2.9,4.44,3.53,5.93,3.96l1.97.66c.35.08.93-.15,1.31,0h.05c.53.21,2.18,1.85,2.6,1.94.63.15,1.49.06,2.33,0,.49.07,1.01.13,1.59.15.18,1.34,3.38,2.32,4.62,1.97l.63.17c2.15,1.14,4.31,2.51,6.43,3.76.26.21.55.43.88.66,1.54,1.84,4.34,4.57,6.59,5.28.13.06.22.12.33.18.31.32.62.65.97.97,0,.05.02.11,0,.16,1.21,2.05,3.16,3.96,5.83,5.76-.51.53-.63.98-.18,1.36l-7.42,6.64c-4.65,7.15-9.57,14.01-14.75,20.55l-.07.05s.08-.08.12-.12l-1.97,1.31c.14-.09.25-.15.36-.19l-.41.27c-5.33,3.76-11.03,5.76-17.17,5.93-.43.05-.88,0-1.31,0-1.62.18-3.16-.05-4.62-.66h-.66c-5.68-.48-11.41-.93-17.17-1.31-.71,0-1.64.05-2.65,0-8.51-1.62-16.77-4.09-24.77-7.4-5.4-1.79-11.24-2.85-16.82-1.19h-.66l-6.59,1.97h-.66l-7.02.76c-5.96.96-11.74,7.9-2.37,7.3,11.92-5.5,24.72-5.43,37.27-1.09,6.21,2.2,12.32,4.49,18.33,6.89,2.15,1.99,6.03,3.51,9.04,4.27,6.72,1.72,34.14,4.22,40.42,1.31,1.21-.56,3.23-1.64,2.68-2.95.02-.03.04-.05.06-.08,0,0,0,.02-.01.03,1.24-1.02,1.63-1.6,2.6-2.6.5-.05.93-.13,1.16-.4,6.09-7.07,11.26-14.62,16.26-22.35,13.79-17.45,21.87-1.94,17.3,13.66l-3.94,20.98c-1.41,13.21.73,21.89,11.39,30.3,4.27,3.81,5.48,9.47,3.59,14.77-3.21,1.67-6.62,2.95-10.1,3.76-.2.05-.45-.05-.66,0-7.52,1.69-15.23,1.69-23.1,0h-.66l-9.24-1.97h-.66c-1.04-.63-2.25-.4-3.31,0h-.66c-.86-1.01-2.12-.83-3.31-.66h-.66c-13.26-2.22-26.79-.78-39.84,1.29-7.52.98-14.95-.78-22.22-2.6h-.66l-8.58-1.97c-.88-.05-1.79,0-2.65,0-2.85-1.49-5.35.98-2.75,3.23.96.83,11.77,4.17,13.28,4.47,11.79,2.42,24.87,3.51,36.86,3.96,3.11-4.01,23.53-.03,24.67,1.41.73,1.04.25,2.17-1.44,3.43-.18.1-.48-.1-.66,0-13.51,10.4-28.25,17.22-44.21,20.48h-.66c-8.03.28-16.11.68-24.06,1.82-1.16.5-3.64,2.47-2.73,3.79,1.04,1.49,16.87,1.82,18.94.96,13.23.96,27.17.73,39.57-4.6,3.96-2.45,7.04-5.93,10.4-8.61,6.62-5.25,24.26-11.97,32.82-11.21,4.19.38,9.97,3.61,14.62,3.76,1.41.05,2.8-.88,3.96-.88,11.72.3,21.46,4.62,29.16,13.41,2.52,2.85,8.48,11.44,7.52,15.2-.76,3-5.78,8.46-7.35,11.82-2.78,5.96-3.96,13.61-6.67,19.75-3.89,8.84-16.89,21.03-24.39,27.75-9.29,8.33-19.14,13-31.71,8.89-.08,0-.14-.04-.22-.05h.24c-.76-.23-2.47-.96-3.31-1.31.23.08.42.22.57.4-.2-.12-.39-.2-.6-.35-12.25-5.25-20.15-14.32-34.31-18.48-2.32-.93-4.75-1.59-7.27-1.97h-.66l-2.65-.66h-.66l-13.21-1.97c-.66-.05-1.31.05-1.97,0-4.75-.66-9.47-1.14-14.19-1.39-3.03,1.34-.18,4.82,2.63,4.75,21.21,1.87,41.96,9.42,59.97,21.29,7.35,6.36,15.45,11.89,24.42,15.93,2.42,1.39-11.69,9.85-13.99,10.35l-.09.5c-.66.3-1.68.06-1.93,1.3.03-.01.05-.03.08-.04l-.13.09c-1.2-.55-3.66.65-3.94,1.92-.96,0-1.69.38-1.96,1.31.03-.02.06-.04.1-.07-.04.04-.09.07-.12.12-.48-.18-.93-.28-1.24-.13-4.8,2.37-10.83,6.41-15.38,9.52-2.78,1.89-16.21,12.09-6.69,11.41,5.78-5.02,10.55-8.61,17.67-11.77,17.6-5.3,35.22-14.97,47.22-29.54l.1-.06s-.05.04-.07.06c.96,0,1.64-.38,1.97-1.31,0,0-.05.02-.06.03l.04-.03c8.08-10.4,16.74-20.33,25.98-29.72,5.5-6.01,10.78-13.26,12.32-21.11.4-1.44.83-2.52,1.31-3.31,2.9-6.06,6.72-11.84,10.55-17.17l1.31-1.97c3.13-1.36,6.34-2.9,9.62-4.57,3.56-.98,6.97-2.1,10.18-3.33h.06c4.77.58,9.49-1.01,14.11-.2l8.3-3.09.66.44c13.51-5.78,29.29-6.09,42.87-.45,2.83,5.02,6.31,9.42,10.5,13.1,4.09,1.69,7.9,7.63,2.45,7.63-6.54,2.17-10.53,8.26-13.51,14.09-2.05,5.25-3.89,10.05-9.34,12.6-13.21,5.28-22.07,14.62-30.3,25.83-1.67-1.01-2.17-.3-.88,1.21l-3.38,5.55c-5.23,10.93-10.55,21.51-20.83,28.73-11.11,8.08-22.57,15.63-34.36,22.62-.18.1-.48-.1-.66,0-1.36.43-1.79.86-1.31,1.31h-.02c-1.69.41-3.59,1.05-4.55,2.62l-.05.03c-15.17,7.47-30.12,16.64-43.56,27.07-.15.1-.51-.1-.66,0-3.69,2.5-6.56,5.35-8.58,8.58h0c-1.29,1.69-3.91,3.94-.33,5.28l8.86-7.88s-.04.01-.05.02c.04-.02.07-.05.11-.07l-.06.05s.04-.02.06-.03v-.03l.86.15c7.12-5.05,14.54-9.49,22.24-13.33.02-.03.04-.05.06-.08,1.26-.63,2.53-1.26,3.79-1.88h.11c13.21-5.93,26.41-11.67,39.59-17.17.93.2,1.16,1.09.66,2.65-2.35,11.29-6.31,22.83-11.51,33.28-4.19,5.2-7.9,11.59-10.2,17.19,2.07,3.64,4.47,2.42,7.22-3.61.08-.18-.08-.48,0-.66l15.17-20.2c1.72-1.97,2.8-4.04,3.28-6.21.02-.11.08-.2.11-.31-.02.09-.05.17-.08.26.67-1.21.81-1.61,1.29-2.6.55-.25.58-.48,0-.66,0,0,.01-.02.02-.03h.03c.1-.2.54-.55.99-1.35-.12.15-.24.25-.37.31.2-.29.4-.59.64-.9h.04c-.1.23-.21.41-.31.6.11-.15.22-.34.31-.61l.64-.17c3.18-9.14,6.99-18.33,12.78-26.11,12.25-6.19,22.04-11.69,25.58-26.13l1.92-3.71c.08-.18-.08-.45,0-.66.56-.25.56-.48,0-.66.02,0,.03-.02.05-.03.69.45,1.4-.13,1.92-.67.08-.18-.05-.45,0-.66h0v-.61c2.65-3.66,5.53-7.04,8.58-10.13,13.96,10.2,14.24,17.95,14.47,34.09.1,7.7-.88,15.71-1.87,23.43-.02,1.41.45,6.45,1.86,6.93-1.2.14-3.58,1.3-4.23,2.09-1.29,1.52-3.91,14.64-3.84,17.04.3,9.17,8.36,24.26,14.06,7.7h.03c.08-.2-.05-.45,0-.66,3.69-5.73,1.16-24.04-5.53-26.16h-.04c3.11-1.09,4.61-22.38,4.48-26.84.34-1.14.61-2.12.75-3.08.17.51.7.88,1.63.81,2.6,4.87,16.61,10.3,20.5,6.62,2.83-2.68-3.33-8.79-6.62-8.79-.18-.08-.45.08-.66,0h-.03c-.77-1.09-5.03-1.79-8.39-2.07,2.26-.75,4.75-1.96,5.56-2.53,4.75-3.31,14.67-16.13,2.85-14.54v.03c-.23,0-.45-.05-.66,0-1.99.5-3.53,1.39-4.62,2.65l-.04.04s.01-.06.02-.09c-.81.56-1.59.93-1.97,1.97.03-.02.08-.04.13-.05l-.1.1c-3.93.44-7.27,8.99-5.36,12.43,0,0-.04.01-.04.02-.18.23-.15.63-.08,1.06-1.13.14-1.82.78-2.07,1.44.03-.86-.04-1.73-.36-2.7,1.67-10.91.23-20.15-6.41-28.96-2.88-3.59-7.8-11.59-1.44-13.79,8.26-1.69,14.87-5.63,19.8-11.79,4.75-3.81,19.01,5.91,21.23,9.42,8.91,17.85,17.42,35.85,25.5,54.01-.3.23-.33.45,0,.66.28,2.16,2.99,4.01,4.67,3.72.55,1.47-.74,2.91-3.94,4.33l.35,1.11c-3.43,18.56-7.32,37.04-11.67,55.5v.66c-1.62,10.71-2.27,21.49-1.97,32.34v.66c1.01,19.47.91,39.04,0,58.76v.66c-1.26,6.59-3.06,13.03-5.33,19.32-1.87,2.37-4.12,6.51.71,5.78,1.82-.35,4.95-2.37,5.28-3.96.48-.56,1.14-.98,1.97-1.31,19.21-12.17,36.46-29.16,44.89-50.83.08-.2-.08-.45,0-.66,1.77-3.48,3.31-6.99,4.62-10.55,0-.07.01-.13.01-.2.01.07.02.13.04.2.56-1.24,1.34-2.73,1.97-3.96h-.05c.86-1.34,1.79-2.22,2.8-2.63.82-1.56,1.63-3.08,2.45-4.62-.79,2.03-1.31,4.13-1.49,5.93-8.74,34.62-32.77,60.27-63.81,76.58-9.06,4.32-16.08,11.59-21.11,21.79-.08.18.08.48,0,.66-3.94,5.93-4.97,12.9-3.06,20.86,1.39,15.68-20.2,25.43-33.23,27.83-6.29,1.46-8.26,3.59-5.91,6.39,3.94,3.18,8.79,3.46,14.04,3.53,6.89.08,14.54-.23,21.44-.71,1.62.61,2.6.51,2.93-.3,7.7-.3,15.45-1.11,22.93-3.03,3.48-.88,8.69-2.27,10.58-5.05l.04-.03c1.19.11,1.4-.78,1.88-1.25l.05-.03c3.41-3.53,7.27-6.31,11.54-8.36,4.01.45,8.03,1.14,12.04,2.02,6.49-1.82,12.93-2.58,19.32-2.25l2.65,1.31c.04.65.5,1.23,1.13,1.71-2.82-1.34-6.12-1.87-9.92-1.56-5.48,1.36-10.98,2.55-16.46,3.53-7.5-2.17-17.85-.23-14.97,9.95,11.06,19.32-13.26,25.53-28.36,28.43-37.45,2.9-71.18,19.39-104.2,36.64-8.96,4.04-17.14,9.06-24.57,15.02-.2-.03-.43,0-.66,0-.2,0-.45-.05-.66,0l-1.31,1.97c1.94.34,3.49-.67,5.09-1.24.07-.02.12-.03.19-.05,1.57.18,3.21-.28,4.9-1.36,9.37-6.16,19.21-10.53,29.59-13.08,14.09-.98,27.8-2.8,38.1-13.28l1.97-1.31c10.83-5.66,22.7-8.71,35-9.59,16.89-.08,33.35-2.1,49.36-6.06,2.78-.58,4.8-1.74,6.06-3.48l.06-.03c2.3.03,4.02-1.46,5.83-2.61l.04-.02c2.83-1.14,5.5-3.11,8.08-5.91,1.54.96,2.07.56,1.54-1.19l7.12-4.82c7.45-6.99,10.2-7.78,8.23-2.37-1.92,2.93-4.12,6.87-.56,8.99l.07.14c.27.84.2,1.87,1.2,2.43l.04.08-.53.78c2.27,5.28,1.59,10.2,0,15.45-.3,2.27,1.39,2.8,3.38,2.75,12.8-1.77,19.19,1.39,28.2,11.24l13.76,17.85c9.82,14.32,26.87,15.43,42.87,15.73,12.5-.25,24.95-.68,37.37-1.29,30.98.93,61.84,1.04,92.56.33,13.81-.2,6.29-7.73-2.63-8.58h.07ZM795.99,732.28c-.42-.09-.72-.23-.93-.4.33.12.66.27.99.4h-.06ZM605.68,224.85c.15.08.3.17.45.25l-.56.09.11-.34ZM470.73,441.85s.12-.08.17-.11c0,.02-.01.03-.02.05-.05.01-.1.05-.15.07h0ZM476.8,438.51s.01,0,.02-.01h-.01s0,.01,0,.01ZM597.37,338.89c.59-.1,1.18-.22,1.78-.34-.46.24-1.03.38-1.78.34ZM606.14,336.81s.03,0,.05-.01h0s-.04,0-.06.01h.01ZM786.08,770.54s-.02-.01-.03-.02v-.02l.03.03h0ZM785.61,770.26c-.61-.36-1.21-.74-1.83-1.07,1.26.81,1.88.5,1.83,1.07Z"/>
  <path class="st0" d="M893.03-79.82c5.02-6.14,12.4-27.17-2.98-21.11v-.03h-.03c-.2.05-.45-.05-.66,0-10.48-.83-31.16,23.73-24.39,32.52,5.33,6.94,23.89-6.29,28.05-11.39h.01Z"/>
  <path class="st0" d="M632.07-30.61c-.1,1.24,7.7,3.93,9.21,4.12l-.02.02c.13.53.2,1.01,0,1.26-7.8,10.07-17.12,16.08-28.61,21.26-15.83,8.79-27.35,26.11-31.51,43.63h-.03v.13c-.1.38.08.91,0,1.31-1.89,6.41-2.58,13.46,0,19.8.05.2-.05.45,0,.66,2.85,7.75,6.56,14.97,11.19,21.69,2.47,4.52,2.4,9.47-.23,14.85-.91,2.9-.2,5.63.91,8.36,1.69,2.42,1.74,2.68,3.16,5.08,3.56,6.09,10.13,9.32,17.04,10.02,3.91.4,6.19-.76,10.13.43,4.57,1.39,14.54,8.05,17.09,11.97,3.59,5.45,2.78,7.85,8.56,12.22.08.08-.38.96.08,1.54,4.72,5.93,5.35,5.71,8.64,12.88l.39.58c.18.31.36.58.52.78l.41.61c4.85,12.5,1.31,23.43,8.58,36.31l1.31,1.97c2.9,4.39,5.88,6.31,9.24,9.9.07.02.11.05.17.07.82.87,1.65,1.62,2.39,2.39.03.07.06.12.09.19,5.98,6.34,7.73,8.13,11.03,16.34.3.81,1.36.76,1.49,1.29.4,1.89.13,6.14-.62,8.03h0c-.05.1-.81.86-1.31,1.97.01,0,.03,0,.04,0-.02.04-.05.07-.07.11-1.74,3.81-1.67,6.62-1.31,10.55.01.06.03.12.04.18.16,2,.21,5.27,1.88,6.28.02.04.03.09.05.13-.63,7.37.58,13.22,1.97,20.47-1.17.65-.37,2.2-.17,3.14,1.03,4.88,1.77,10.25,2.13,15.14l.02.87c.61,9.87-.58,21.03.61,30.75.18,1.24,1.31.91,1.31,1.24-.56,9.9,1.54,14.59,5.35,23.48.07.23.15.46.22.69.55,2.2.82,4.63,1.32,6.71.3,1.19,1.59,2.65,1.59,3.46-.2,9.32-2.81,15.88.78,25.78.02.11.02.21.05.32.76,1.99,2.17,5.25,4.67,2.35,1.26-1.46,2.95-12.3,4.44-15.35,1.49-3.06,7.02-7.5,7.75-10.07,2.45-8.61.86-21.87,2.45-31.23,1.24-7.3,5.76-19.47,9.72-25.78.48-.73,1.51-.23,2.02-.88,6.29-7.85,10.05-9.37,17.14-15.4.76-1.62,1.99-2.83,3.31-3.96,8.69-11.54,11.31-24.92,20.48-36.61,9.34-11.89,23.41-18.61,38.58-19.52,5.48-.33,12.47,1.26,17.19.71,8.99-1.04,5.4-10.76,7.6-15.35.56-1.16,3.18-1.46,4.12-3.36.76-1.54-.08-4.62.63-6.59.48-1.26,1.94-1.89,2.35-3.59,1.01-4.37-1.44-6.31-2.5-10.1,1.54-.63,3.03.51,3.96.66,10.86,2.85,16.87,2.12,15.07-11.06l-3.86-14.7c.56-.3.58-.53,0-.66-3.31-5.91-2.27-8.56,1.16-13.76,10.3-13.36,11.21-29.74,4.12-44.99l-1.31-2.65c-1.39-4.27-3.06-9.01-5.45-12.37-1.99-4.14-3.38-8.53-4.12-13.13-.47-.29-.87-.4-1.21-.37.23-.35.32-.79.22-1.25h-1.31v1.97s.09-.04.13-.06c-1.1,1.72-.77,6.3-.46,8.06,1.62,9.24,4.52,18.13,7.57,27.12,1.74,6.62,3.21,15.91.66,22.35-.58.23-.58.43,0,.66-4.7,7.04-7.93,14.44-9.7,22.19,1.99,8.31,4.42,16.49,7.27,24.52-3.53,1.36-7.55,1.79-12.04,1.36-6.06,1.14-6.24,7.98-4.19,12.88-1.52,1.52-3.08,2.98-4.7,4.39.4,2.78.53,4.6.33,5.48-3.26.35-5.13,2.85-5.58,7.57-1.92,9.97-23.23,3.28-29.34.48-5.2-2.37-5.83-2.78-7.17-9.34-5.48-11.69-8.43-24.01-4.19-36.54.01-.02.02-.05.03-.07v.04c.35-.98,2.35-1.97.66-3.96v.03c-.38.1-1.06-.13-1.31,0-.2.1-.91,1.54-1.31,1.97h0s-.02,0-.03.02c-5.68,3.66-6.59,11.06-6.74,17.35,1.06,7.15.91,14.14-.51,20.96-.56.23-.56.45,0,.66-1.74,7.47-7.83,12.78-14.14,16.89-2.93,2.2-5.25,4.72-6.97,7.55h0s-.01-.03-.02-.05v.03c-3.99,4.57-8.61,11.24-10.91,17.14-.71,1.84-1.31,5.23-1.64,7.27.05-.11.1-.22.16-.33-.04.13-.09.25-.13.38-3.43,5.48-7.5,9.57-13.21,13.08v.68h-.05c-3.13-.43-5,5.02-5.33,5.25-.15.13-3.41-.03-3.59-.08-.58-.15-.41-2.01-.96-2.52.79-8.42-1.37-18.33-3.97-26.34-.01-.03-.02-.06-.04-.09l.06.04c-.56-2.99-1.46-5.86-1.96-8.56.15.45.13.94.05,1.44-.03-.47-.07-.93-.07-1.42.28-3.11-.13-7.04-1.31-9.9,0-.06.01-.13.02-.19v.12l.53-.48c-.25-2.25.1-4.5.77-6.71,4.14-7.75,9.39-14.78,15.72-21.17,2.63-3.26,4.49-7.07,5.63-11.11.45-9.97,5.1-38.18,15.1-42.95,12.09-1.92,19.09-3.41,26.61-14.42,5.05-8.43,8.89-17.78,12.45-26.92.1-.25-.05-.58-.28-.93l1.31-2.65,1.11-.45c13.26-17.7,34.19-27.4,53.86-36.31,14.7-7.45,29.11-15.83,42.67-24.85,10.73-2.98,22.04-3.51,32.85-1.59,6.36.88,5-4.09-.23-4.24l-10.81-1.21h-.66c-9.14-1.01-19.06-2.05-27.72,1.97-.25-.58-.48-.58-.66,0-10.88,6.46-22.09,11.72-33.63,15.78l-.91-.56c.66-5.86,1.16-11.59,1.54-17.19-.51-.61-.28-1.06.66-1.31,1.31-4.47,3.31-8.33,5.98-11.64l-.35-.93c3.18-4.17,6.14-8.33,8.86-12.5.03-.07.07-.17.1-.25l-.03.17c1.99-2.8.93-2.3,1.31-5.28,0,0,0-.02-.01-.02h.01c.2-1.58,0-1.77,0-2.63.06-1.52,2.29-5.04-1.31-5.27.72,5.47-.77,8.45-3.83,12.37l-.21.23-.78-.1c-2.32,2.7-4.72,5.38-7.15,8l-1.82.51c-4.87,6.62-11.51,18.1-13.51,26.01-.56,11.31-1.52,14.14-11.16,20-9.12,4.42-17.9,9.29-26.44,14.57l.1,1.64-.05.04c-2.59,1.2-5.17,3.82-7.09,5.84-.01,0-.02,0-.03.01h-.01s-.06.04-.09.05c-.05.09-.11.17-.16.26-2.77,3.01-4.34,5.62-6.13,9.22-.1.14-.19.28-.29.42-.48.25-.96.53-1.39.86-1.79,1.46-9.01,19.9-10.45,23.86-.3.96-.15,2.02,0,3-.02.03-.05.06-.07.1l-6.42,6.42s-.06.05-.1.07l-1.92-.86c-7.17.63-17.22,2.3-23.31,5.86,2.65-10.15,8.81-19.95,14.7-28.66l15-20.38c7.47-9.92,10.4-19.82,8.48-32.14-.05-5.68,1.41-11.34,4.01-16.39l-.48-1.79s.03-.07.04-.11v.04c.5-.76,2.41-2.93,3.23-3.87.01,0,.02-.01.03-.02,3.18-1.44,6.14-3.66,8.86-6.64l16.84-13.18c7.83-5.05,8.43-15.1-1.92-7.63-3.59,3.71-7.68,6.87-12.27,9.42-8.86,3.56-16.54,8.43-23.03,14.64-1.24-14.9,3.41-29.52,14.7-39.67l.78-2.47s.04-.07.06-.1c.82-.7,2.22-1.83,3.11-2.5.05-.01.08-.03.13-.05l2.65-.25c12.4-7.4,25.02-14.47,37.85-21.18,3.38-1.92,6.46-4.19,9.54-6.51.28-.2.4-.61.56-1.04.15-.43.2-.88.25-1.36.76-.25,1.49-.63,1.97-1.31.33.1.66.23,1.01.23.83.05,7.57-7.12,6.89-8.81,7.07-8.08-4.75-4.14-7.93,0-2.02-.27-2.78.72-2.01,2.53-1.26-.16-1.43.89-1.92,1.31l.11.05-.11.07-2.65.48c-7.07,5.83-14.8,10.96-23.33,14.22-11.36,3.51-21.99,8.31-31.86,14.39l-.24,1.82c-.95,0-1.68.38-1.96,1.31.05.01.08.01.12.02-.05.02-.1.06-.15.08l-1.49-.66-8.43,4.92c-2.83-3.46,7.47-40.55,10.25-47.92l-.3-1.21c2.68-5.68,5.13-11.24,7.35-16.64,1.41-5.73-3.18-4.97-4.72-.53-.08.18.08.48,0,.66-6.06,11.87-11.97,23.84-17.7,35.9-1.16.58-1.99,1.41-2.22,2.6-3.41-5.23-7.2-9.37-12.8-12.42-.2-.1-.53.08-.93.33-.02-.06-.08-.11-.12-.17.04.02.09.05.12.06h0c-.55-1.53-2.33-2.08-3.48-2.9-.05-.06-.12-.11-.19-.15-.09-.07-.18-.14-.25-.22.25-.3.43-.58.36-.7-.88-1.44-5.48-8.33-7.04-7.52-2.2,1.11,2.73,13.84,6.01,14.22.08.04.12.1.2.14.84.9,1.46,1.48,2.3,2.29.04.08.11.14.15.22-.03.53.18.78.66.66.09.03.16.08.25.12.89.81,2,1.48,2.77,2.19.09.12.19.23.28.35,3.08,4.57,6.24,9.44,7.27,15.17-.56.3-.58.53,0,.66-.28,6.59-1.84,13.23-4.7,19.92-1.52,9.12-.61,18.33,2.73,27.62l-.63.93c2.95,12.55,5.91,25.12,5.66,38.18-.2,10.88-12.9,33.66-19.9,42.02-8.43,6.31-13.89,14.29-16.41,23.89l.88,1.87s-.03-.04-.03-.05c-1.94,1.94-1.58,5.29-1.96,7.83.08-.22.17-.46.27-.72l-.23.92-1.72,2.3c-2.42,16.13-7.47,31.61-14.32,46.38l.18,2.83-.45.76c.11-.23.24-.5.4-.86-1.31.58-1.79,1.97-1.97,3.31.34-.51.55-.8.73-1.04l-.68,1.14-2.25.91c-4.27,4.97-9.22,11.49-11.64,17.25-6.03-4.54-12.52-9.92-17.14-16.26l-1.99-.58c-.06-.03-.1-.08-.15-.11h.11c-.34-.55-1.61-2.68-1.92-3.22l.77-1.35c-4.09-9.59-8.69-27.37-1.06-35.98,12.9-10.86,20.81-20.58,19.47-38.73.23-1.51,1.97-11.56,2.4-12.27.25-.4,6.49-5.68,7.35-6.26,3.76-1.06,6.46-2.88,8.13-5.5,5.66,3.16,28.46-13.61,28.86-17.14.51-4.37-4.27-3.51-7.07-2.2-9.38,5.44-20.33,8.68-30.81,11.14-.05-.21-.17-.42-.32-.64,1.24-2.35,2.32-3.89,4.62-5.28.02-.03.05-.05.07-.08h.56c1.15-1.17,2.06-2.46,2.9-3.48.15-.13.29-.28.43-.41,3.74-.91,8.81-6.01,9.24-9.9,5.61-6.69,7.25-13.61,6.87-22.12-.05-.91-1.89-11.01-2.5-10.98s-3.13.91-3.31,1.82c.03,8.48-1.82,17.5-7.68,24.01l-1.82.2c-7.9,7.95-14.22,17.09-18.99,27.42-4.85-5.1-6.21-8.61-2.42-14.9,2.1-17.02-4.04-33.25-23.91-30.85-11.24-5.81-18.99-14.52-23.36-26.23-1.29-2.83-4.01-3.79-5.96-.91-1.06,1.54.96,11.49,3.84,10.91.03.03.06.07.09.1,1.38,2.48,2.46,3.18,3.79,5.05.02.04.06.08.08.13,3.69,8.51,10.25,16.54,16.34,23.71,1.14,1.36,4.19,1.21,5.68.35,11.08-9.85,19.75,10.15,14.16,18.71-4.12,3.23-3.86,6.56-3.46,11.24,1.57,7.8,2.5,15.6,2.35,23.58-.18,8.74-1.92,13.05-8.64,19.37-11.03,10.4-36.69,3.59-47.39-5.58-4.6-2.2-6.97-3.21-10.91,1.09-6.92,5.43-23.05-5.78-16.74-14.29,4.01-3.64,5.78-5.98,2.1-11.08-10-15.1-18.43-28.91-10.58-47.8,7.15-17.14,18.56-26.59,34.89-34.36,5.76-3.91,18.74-14.85,21.34-20.7.35-.81.38-1.67.23-2.52,8.31-12.85,13-26.31,13.86-41.59.58-.23.58-.43,0-.66.53-.96.45-2.32,0-3.31.58-.23.58-.43,0-.66,2.55-5.68,12.78-36.44.43-17.88-4.29,11.06-7.93,22.42-10.91,34.06-2.12,8.76-6.05,16.21-11.76,22.38-.02-1.63.52-3.07,1.71-4.28.05-.2,0-.43,0-.66.61-1.46.58-3.16,0-4.62v-.66c-1.24-12.95-7.63-25.45-21.11-28.38h-.66v-.03c-3.48-1.31-4.39,1.34-4.87,4.27-2.15,12.85,3.71,25.07,15.55,30.43l.04-.07ZM759.06,241.15c-.29.4-.6.78-.88,1.19.24-.55.54-.93.88-1.19ZM736.91,274.05v.08l-.11.07s.08-.11.11-.15ZM729.75,279.69c-.48.01-.89-.03-1.25-.11.28-.12.56-.22.83-.2.21.01.33.14.41.31h.01ZM721.96,247.62s-.03-.1-.04-.14c.02.04.03.09.04.14ZM799.63,84.58v.02c-.37.24-.8.45-1.3.62.06-.09,1.3-.65,1.3-.65h0ZM793.61,92.3c-.15.22-.3.43-.45.65.06-.19.21-.41.45-.65ZM851.05-54.64s0,.03.02.04l-.05.04s.02-.05.04-.08h-.01ZM759.36-48.13v-.07s.02.02.03.04l-.03.03ZM706.49,366.11c.03-.08.03-.16.07-.25l.05.06c-.03.06-.09.12-.12.18h0ZM691.55,256.99c.1.29.19.58.3.86-.14-.21-.28-.5-.3-.86ZM680.24,184.13s-.01-.07-.02-.1c0,.03.02.07.02.1Z"/>
  <path class="st0" d="M350.14,229.81v.03h-.03c-1.44-.08-3.21-.1-4.62,0-6.44.28-13.33,1.97-19.14,4.62-.18.08-.45-.08-.66,0-3.43,1.77-13.48,7.75-11.29,12.47,1.16,2.47,5.71,4.09,8.23,4.65,11.49,2.47,22.6-1.94,31.01-9.57s7.75-10.86-3.51-12.2h0Z"/>
  <path class="st0" d="M796.83-90.98c6.54-5.18,14.42-17.75,14.01-26.46v-.66c.91-6.06-4.72-15.45-9.9-8.58v.03l-.04.03s.02-.04.04-.05c-1.31-.2-1.44.83-1.97,1.31h.04l-.04.03c-4.47,3.38-7.47,9.77-9.24,15.17-.05.2,0,.43,0,.66-1.69,4.07-.4,24.47,7.1,18.53h0Z"/>
  <path class="st0" d="M861.47-39.7c7.47,3.91,18.89,4.19,26.59.78l.06-.04-.03.06c1.39-.61,1.52-1.06,1.97-1.31-.03,0-.05,0-.08,0l.05-.04c.86-.48,1.84-.81,2.65-1.31,2.85-1.67,2.7-4.22-.48-7.6l-6.79-3.61c-.28-.56-.51-.58-.66,0-1.69-.76-3.46-1.41-5.28-1.97-.35-1.29-.93-1.26-1.31,0l-4.62-.66v-.03c-1.19.05-3-.23-3.96,0-1.94.43-3.71,1.09-5.28,1.97-.23.1-.48.86-.88,1.06-7.1,3.56-11.21,7.83-1.94,12.68h0Z"/>
  <path class="st0" d="M1020.99,249.76c3.81,3.11,21.03-2.15,23.48-6.74.03-.03.06-.06.09-.09-.03.04-.06.08-.09.12,1.56-1.1,1.82-1.11,3.28-2.63h-.06s.05-.04.08-.05c2.73-1.59,8.91-11.19,6.79-14.04-2.93-3.91-17.19-.56-20.65,2.17l-.03.03c-.2.08-.45-.08-.66,0-.83.48-1.62,1.04-1.97,1.97-.1.1-.56-.1-.66,0-3.76,2.3-14.14,15.58-9.62,19.27h.02Z"/>
  <path class="st0" d="M392,169.52c8.66-3.59,16.18-9.9,19.49-18.91.08-.18-.08-.45,0-.66,1.36-1.06,3.26-7.17,2.2-8.21-2.32-2.32-16.01,1.79-18.18,4.24-.1.1,0,.35.15.66-.97-.25-1.31.24-1.95.64l-.05.02c-8.48,3.33-20.48,30.02-1.67,22.22h.01Z"/>
  <path class="st0" d="M402.91,48.93c.07.05.13.1.19.16,1.08,1.17,1.47,1.38,2.16,1.81-.02-.04-.03-.07-.05-.11.18.14.37.29.54.43-.19-.13-.35-.23-.5-.32.11.22.36.44.85.61.03.03.07.05.1.08,2.47,6.82,30.43,8.38,31.94,4.75,1.99-4.8-14.39-16.36-19.39-15.98-.2-.08-.45.08-.66,0h-.03c-7.88-5.78-27.88-3.99-15.17,8.58h.02Z"/>
  <path class="st0" d="M947.09,42.69c6.06,1.77,15.28,2.02,21.29-.15,9.85-3.56,9.42-10.86.2-14.72h-.63c-5.73-1.69-12.88-2.47-18.48,0-.2.05-.45-.05-.66,0l-6.26,3.51c-9.75,5.61-3.89,8.91,4.54,11.36Z"/>
  <path class="st0" d="M488.05,320.92c-.02.06-.05.09-.07.15-.8.99-1.02,1.23-1.79,2.41-.04.03-.06.07-.11.1-2.6,3.96-4.75,7.65-5.76,12.4-1.92,9.12.1,25.48,10.66,11.97,5.48-7.02,8.94-19.57,7.32-28.33-.78-4.27-1.11-2.22-3.13-3.33-.63-.33-.56-1.06-.63-1.11-1.87-.88-5.35,4.42-6.46,5.78v-.03h-.03Z"/>
  <path class="st0" d="M556.73,530.21h-.03c-.33-.13-1.97-.66-1.97-.66l-1.97.66c-.2.08-.48-.08-.66,0-5.58,5.73-2.83,16.24,0,22.45.05.2-.05.45,0,.66,3.99,12.25,20.7,18.56,16.51-.66-.05-.43.05-.88,0-1.31-1.34-8.26-4.85-16.26-11.89-21.13h0Z"/>
  <path class="st0" d="M611.92,234.06c-7.1-4.49-21.61-4.47-28.73.13-5.5,3.53-2.2,9.06,2.88,10.86,6.39,2.22,15.12,1.52,21.29-1.21,3.43-1.51,9.39-6.72,4.57-9.77h-.01Z"/>
  <path class="st0" d="M432.63,466.18v.03c-.2.05-.48-.08-.66,0-8.11-.05-24.14,24.21-16.79,28.68,4.9,2.98,18.43-10.98,20.55-15.45,2.55-5.35,7.17-18.36-3.11-13.26h.01Z"/>
  <path class="st0" d="M345.82,227.14c12.78,1.82,23.89-5.13,4.97-13.16-.18-.08-.45.08-.66,0-6.39-3.33-13.56-4.6-20.45-1.97-.2.05-.45-.05-.66,0-1.82.61-3.41,1.54-4.75,2.83-1.06,2.73,16.74,15.83,21.54,12.3h.01Z"/>
  <path class="st0" d="M529.45,151.5h-.01c-6.1-5.99-10.45-4.04-9.65,4.74.86,9.32,6.89,18.81,14.67,23.58.63.38,6.82,3.41,7.1,3.13.38-2.12-.35-5.13-.96-7.3-1.71-6.05-6.85-19.87-11.14-24.14h-.01s0-.01,0-.01Z"/>
  <path class="st0" d="M969.23,201.46s.03-.04.04-.06c.97-.98,2.26-1.52,2.59-3.23,0,0,0,0,.02-.02,6.56-5.02,8.31-18.31,4.62-25.75h0c-.15-.05-.48,0-.66,0-9.37,1.79-14.95,11.72-16.51,20.48-.05.4.03.88,0,1.31-.56,7.27,3.43,17.52,9.9,7.27h0Z"/>
  <path class="st0" d="M533.63-55.38v.03h.03c-.58.25-.58.48,0,.66,1.39,3.41,3.56,6.46,5.93,9.24-.66,1.11-.28,1.49.66.66,2.35,3,5,.1,5.93-2.65.05-.2-.05-.45,0-.66,2.15-6.59,1.31-13.79,0-20.48,0-.2-.03-.45,0-.66-10.55-23.38-18.33,1.84-12.55,13.86Z"/>
  <path class="st0" d="M792.28,280.92c1.46-7.88,2.93-20-2.27-26.64-1.77-2.27-4.82-4.7-6.82-1.59-4.62,7.22-6.01,19.04-1.69,26.26h0c2.7,4.49,9.12,10.88,10.78,1.97Z"/>
  <path class="st0" d="M465.38,372.5c-6.72,1.41-9.44,4.62-14.27,8.51-.71.56-1.39.68-1.31,1.97h.03s-.02.02-.03.03c-1.99,1.24-3.71,4.54-1.82,6.46.68.68,6.77,1.16,8.05,1.06,5.63-.45,14.42-3.81,18.2-8.03.61-.68,4.6-7.17,4.62-7.8.25-4.54-10.6-2.8-13.48-2.2h.01Z"/>
  <path class="st0" d="M415.28-8.01c2.4.03,5.66.03,4.82-3.13.58-.23.58-.45,0-.66-3.46-7.95-9.62-15.33-17.83-18.48-.2-.05-.45,0-.66,0v-.03c-8.91-4.04-13.43,1.72-8.21,9.39,3.51,5.15,15.53,12.83,21.87,12.9h0Z"/>
  <path class="st0" d="M391.7,379.01c-.18-.08-.48.08-.66,0-1.31-.93-2.85-1.59-4.62-1.97-.2-.05-.45.05-.66,0h-.03c-3.94-4.52-29.04,2.22-21.36,8.58,2.65,2.17,15.91,4.75,19.72,4.9,9.37.38,23.2-3.79,7.6-11.51h.01Z"/>
  <path class="st0" d="M446.52,336.14c-4.8,3.06-6.72,9.24-7.93,14.52-.08.38.08.91,0,1.31-3.59,9.22,1.77,24.04,11.21,10.55v.03c3.16-6.77,5.2-15.2,2.3-22.42-.76-1.92-3.28-4.44-5.58-3.99h0Z"/>
  <path class="st0" d="M583.75,426.21l-9.24-3.61c-.33-.1-.88.08-1.31,0l-1.97-.66h-1.31c-.76-.3-1.41-.3-1.97,0h-1.36c-1.01-.5-2.32-.61-3.31,0h-.66c-13.58,1.44-1.24,10.38,4.87,13.26,5.25,2.5,17.85,5.33,21.87-.18,2.17-2.98-2.7-8.61-5.61-8.81h0Z"/>
  <path class="st0" d="M506.21,367.2c1.41,1.79,2.73,1.36,2.85,1.49.66.58,2.1,2.93,3,3.51h.03c2.78,1.82,18.33,5.83,19.52,1.82,2.07-7.04-16.69-17.73-22.75-18.08-9.29-.56-6.67,6.16-2.65,11.26h0Z"/>
  <path class="st0" d="M489.21,371.89h-.03c-4.44,1.31-4.75,13.61-4.42,17.37.38,4.24,6.01,23.79,10.68,13.99,3.43-7.2,3.16-16.51.58-23.91-1.01-2.95-3.06-8.53-6.82-7.45h.01Z"/>
  <path class="st0" d="M958.68,482.69h-1.31c-.66-.35-1.09-.35-1.31,0v.03h-.03c-.86.08-1.87-.13-2.65,0-6.82.45-4.34,4.42-.51,7.52,6.01,4.85,20.05,9.62,27.5,6.74,8.79-3.41-1.59-10.78-6.51-12.32-.18-.08-.45.08-.66,0-3-1.64-6.49-2.22-9.9-1.97h-.66c-1.24-.61-2.7-.56-3.96,0h0Z"/>
  <path class="st0" d="M647.05,151.69c-.35-.86-5.4-6.59-6.11-7.07-1.51-1.04-2.42-.86-3.71.35-4.24,4.01-3.08,18-1.49,23.33.91,3.08,2.58,3.91,3.59,6.62h.03c3.61,1.01,5.18-1.16,6.62-4.07,2.63-5.28,3.46-13.69,1.09-19.16h-.02Z"/>
  <path class="st0" d="M975.85,276.05v.03h-1.31c-3.38-.2-6.46.45-9.24,1.97-.2.08-.45-.08-.66,0-3.64,1.87.28,5,2.3,6.62,4.8,3.81,12.55,7.04,18.71,7.04,22.65-.08,1.29-17.95-9.8-15.65h0Z"/>
  <path class="st0" d="M558.04,371.14c-.86.18-2.75-.25-3.31,0-3.41,5.88-1.11,15.35,2.47,20.83,1.82,2.78,10.48,12.07,13.51,7.45s-3.21-20.88-6.89-24.74c-.08-.75-.83-1.45-1.8-2.05,5.08,2.4,12.15,1.67,17.46.2,4.22-1.21,17.17-8.69,8.91-12.3-.2-.05-.45.05-.66,0h-.03c-5.2-2.6-11.74-3.16-17.17-1.97-.43.05-.88-.05-1.31,0l-6.59,1.97c-.2.05-.45-.05-.66,0-7.78,3.81-8.91,7.04-3.43,9.65.59.65,1.25,1.2,1.97,1.68-.91-.38-1.83-.65-2.48-.74v.03h.01Z"/>
  <path class="st0" d="M1011.5,367.15c-.51-1.82-1.57-2.27-3.31-2.65v.03h-1.29c-7.55,2.9-11.74,12.4-12.95,20.07-1.29,2.73-1.14,5.93.4,9.65,1.19,2.83,3.84,1.36,5.76-.08,3.46-2.63,12.52-17.02,11.97-21.46-.03-.1-.28-.18-.58-.25v-.05c.09-.15.55-.46.55-.96.02-.72-.42-1.19-.54-1.54,0-.04,0-.06-.01-.1.63-.43.63-1.31,0-2.65h0Z"/>
  <path class="st0" d="M920.52,268.67c7.95-6.29,7.75-42.92-6.72-22.35-.1.15.1.51,0,.66-.88.91-1.57,2.02-1.97,3.31-.05.2.05.45,0,.66-1.97,6.69-3,26.94,8.69,17.73h0Z"/>
  <path class="st0" d="M381.81,251.61h-.01v.05c-.02.06-.02.12-.04.18-.56,2.01-1.74,4.9.72,6.36v.03c3.21,2.5,8.36-1.34,11.08-3.66,4.04-3.43,6.92-7.27,8.71-12.3,1.41-.61,2.42-4.9,1.46-6.21,1.67-.23,1.16-1.44-1.46-3.59h-.03v.05c-.15-.08-1.01-.05-1.31,0-2.55.4-5.78,1.34-7.27,3.31l-.04.02s.03-.05.04-.07c-.78.48-1.21.68-1.97,1.31h.09l-.09.06c-4.61,2.92-9.23,9.03-9.89,14.47h.01ZM384.43,256.89s.01,0,.02-.01h0v.03s-.01,0-.02-.01h0ZM385.09,254.96v-.03h.02s0,.02-.02.02h0Z"/>
  <path class="st0" d="M643.21-91.69c2.15,6.77,19.97,18.58,18.84,4.85-.66-7.9-7.95-17.12-16.21-18.05-.63-1.54-1.19-1.69-1.31,0-3.86,2.32-2.98,8.86-1.31,12.55.08.2-.08.48,0,.66h-.01Z"/>
  <path class="st0" d="M362.04,210.65s-.02.02-.04.03v.03c-.33.3-.33.73,0,1.31.08.4-.08.91,0,1.31h.65c-.89,2.15,4.08,9.97,5.59,10.23,3.36.56,8.23-16.94,6.31-20.15v-.66c-1.26-10.6-9.59-22.3-12.55-3.96-.05.2.05.45,0,.66-.83,3.56-1.62,7.83,0,11.21h.04Z"/>
  <path class="st0" d="M445.17-16.43h0v-.02c.51-.76.73-.98,1.31-1.97,3.89-3.94,8.36-14.24,1.31-17.83v-.03c-.35-.05-.98-.08-1.31,0-7.73-.33-17.14,23.99-12.85,27.47,4.08,3.3,11.04-3.97,11.54-7.63h0Z"/>
  <path class="st0" d="M883.43,466.18v.03h-1.31c-1.92.93-3.23,1.59-3.96,1.97h-1.31c-6.26,2.5-11.87,7.55-14.52,13.86-.05.18.05.43,0,.66-4.6,11.16,15.28,3.33,16.34-1.51,4.19-2.22,16.16-17.27,4.77-15h-.01Z"/>
  <path class="st0" d="M424.04,169.09v.03c-4.14.33-18.33,4.34-15.96,9.72,3,6.79,23.23,3.23,27.85-1.16,1.04-.76,3.96-4.24,3.26-5.23-1.46-2.07-12.47-3.56-15.15-3.36h0Z"/>
  <path class="st0" d="M435.94,367.15h0c-15.24-15.19-15.12,2.52-7.27,11.21h0c.63,1.21.53,1.01,1.31,1.97h0s.01,0,.02.03c1.99,5.45,15.55,12.85,13.21,1.31-.43-3.12-4.92-12.11-7.25-14.49h0l-.02-.02h0Z"/>
  <path class="st0" d="M949.76,474.58c4.65-7.22,5.91-17.85.33-24.92-.15-.05-.43,0-.66,0h-.03c-2.37-1.11-4.82,1.11-5.28,3.31,0,.01-.02.02-.02.03-.28.25-.9.38-1.26.62-.08.18.08.48,0,.66-.07.17.05.42,0,.62,0,.01-.02.03-.03.04-.93.68-1.59,1.79-1.97,3.31-.05.2,0,.43,0,.66-2.78,6.26.05,29.42,8.91,15.68h.01Z"/>
  <path class="st0" d="M949.46,72.48c3.48-3.89,11.06-14.7,1.29-14.32h-.03c-.4,0-1.04-.1-1.31,0-1.94.71-3.71,1.59-5.28,2.65-.2.05-.43,0-.66,0-2.12.91-4.39,3.26-5.28,5.28-.03.03-.05.06-.07.09-.51.44-1.32.79-1.87,1.25,0,.2.03.45,0,.66-.05.21.03.45,0,.62,0,.01-.02.02-.03.04-10.63,17.35,4.07,13.94,13.23,3.74h.01Z"/>
  <path class="st0" d="M1019.38,332.83c.58,1.92,3.38,9.17,5.13,9.52,3.53.73,5.98-8.05,6.31-10.63.71-5.5-.3-12.85-4.17-16.72,0,0-.01-.02-.02-.03h.02c-.93-1.49-.76-1.31-1.97-2.65.14.17.21.34.28.51-.09-.17-.2-.31-.28-.48-.68-4.29-5-2.02-5.28,1.97v.03h-.03c-.08.2.05.45,0,.66-2.3,5.4-2.32,11.77,0,17.17.05.2-.08.45,0,.66h.01Z"/>
  <path class="st0" d="M517.14,465.52c-3.38-1.41-9.62-2.07-11.89.66-3.86-.63-2.42,3.76-.91,6.01,4.12,6.16,18.18,10.23,24.47,5.76,7.2-5.13-6.72-11.21-11.03-12.42-.19-.05-.43.04-.63,0h0Z"/>
  <path class="st0" d="M922.39,437.14c-.2,0-.56-.05-.66,0-4.82,1.46-17.17,15.38-14.29,20.07,1.21,1.97,7.25,1.31,7.68-.93.01-.02.03-.03.04-.05,1.03-.47,1.42-.57,2.53-1.25h.08c3.46-1.19,7.2-4.19,9.24-7.27.01-.02.03-.05.04-.07.32-.26.92-.43,1.27-.89.46-.63.44-1.3.61-1.64.02-.02.03-.03.04-.05v.03c6.72-6.11,1.16-12.78-6.59-7.93v-.02Z"/>
  <path class="st0" d="M812.13-67.27c-.53-.56-1.39-1.31-1.97-.66h-.66v.03c-.83-.53-1.82-.53-2.65,0h-.66l-2.65.66c-.28-.58-.51-.58-.66,0-3.26.48-6.92,1.46-9.24,3.96-2.47,1.69-4.82,4.12-5.25,7.2,3.66,1.31,5.76,2.88,10,2.58,4.24-.3,12.15-3.43,15.71-5.83,2.83-2.7,3.81-6.59-.66-7.93-.38-.1-.91.08-1.31,0h0Z"/>
  <path class="st0" d="M785.69-83.86c-.03-5.1-1.31-9.44-3.74-13.94-3.33-6.14-10.4-11.29-12.7-1.82v2.68c.3.3.3.76,0,1.31,0,.2-.05.45,0,.66.28,6.64,16.54,26.59,16.44,11.11Z"/>
  <path class="st0" d="M993.17,251.18c7.79,2.62,7.6-4.47,3.78-8.82h0c-.33-.61-.05-1.72-1.31-1.97v.02l-.03-.05c-1.06-4.57-6.36-7.83-10.55-9.9-.18-.05-.43.05-.66,0l-1.31-.66h-.69c-1.92-1.21-4.37-.38-4.62,1.97-.1.33.05.88,0,1.31.76,8.89,7.2,15.3,15.38,18.08v.02Z"/>
  <path class="st0" d="M431.29,66.75c-.63-.03-1.31,0-1.97,0-.83.51-1.82.45-2.65,0h-.66c-2.95.13-6.01.4-8.58,1.97-.2.08-.45-.08-.66,0-7.1,7.78,3.03,10.23,9.65,10.1,16.18-.3,26.84-9.24,4.87-12.07Z"/>
  <path class="st0" d="M1049.75,168.43c-1.69-.66-3.59-.63-5.28,0h-.66c-2.7.3-11.26,1.84-12.12,4.57-.35,1.16.3,3.36,1.57,3.36.5.68.56.81,1.31,1.31h0c4.01,3.79,12.22,4.04,17.62,2.85,13.53-2.93,7.45-8.18-1.11-12.09-.38-.08-.88.05-1.31,0h-.03.01Z"/>
  <path class="st0" d="M457.7,35.72c-.28-.56-.48-.58-.66,0-.61-.48-1.31-.35-1.97,0-.2,0-.45-.03-.66,0-6.94,3.16-5.18,26.84,2.05,27.45,5.98.51,8.41-24.74,1.24-27.45h0Z"/>
  <path class="st0" d="M451.11,82.61c-1.54-8.76-8.36-2.22-10.55,2.65-.1.18.08.48,0,.66-3.38,2.95-7.95,16.87-.71,17.55,8.43.78,12.07-13.69,11.26-20.2,0-.2.05-.45,0-.66h0Z"/>
  <path class="st0" d="M1020.26,153.64c-3.48-13.71-19.44-22.14-13.41-1.06.08.2-.08.48,0,.66,3.79,10.1,18.41,19.97,13.41.4Z"/>
  <path class="st0" d="M930.02,33.68c5.5,3.16,13.63-12.88,14.8-17.09.03-.43,0-.88,0-1.31v-.03c.03-5.76-2.07-7.42-7.27-3.96-.23-.58-.43-.58-.66,0-5.63,1.84-11.89,19.52-6.87,22.4h0Z"/>
  <path class="st0" d="M1026.19,267.76c3.86,2.58,15.1,7.6,15.63.35,0-.2.03-.45,0-.66l-1.97-2.65c-.1-.18.1-.51,0-.66-3.71-5.18-9.57-8.33-15.83-9.24h0c-.86,0-1.87-.1-2.65,0-9.72.45,1.19,10.43,4.82,12.85h0Z"/>
  <path class="st0" d="M435.28,402.14h-.03c-.63-.05-1.31,0-1.97,0-2.78,8.81,2.93,18.28,10.15,23.28,13,9.04,3.94-14.64-.91-17.35v-.66c-.05-.23.08-.53,0-.66l-.66-.66h0c-.18-.08-.45.05-.66,0-.23-.3-.45-.3-.66,0h0c-1.06-1.97-3.18-3.21-5.28-3.96h.02Z"/>
  <path class="st0" d="M483.46,499.18c-.56-.23-1.34-.45-1.97-.66h-.03c-13.63-7.52-29.39,3.38-8.16,9.49,9.29,2.65,24.34-.43,10.15-8.84h.01Z"/>
  <path class="st0" d="M437.25,180.98v.03c-2.98,1.79-12.93,9.9-7.75,13.38,3.81,2.55,14.54-2.83,15.68-6.79,0-.03.02-.07.03-.1.42-.57.72-1.15.63-1.89,0,0,0-.02.01-.02l1.3.65c.07-.3.05-.98,0-1.29,2.15-1.29,4.77-8.43,2.55-9.82-2.22-1.39-10.28,4.39-12.45,5.86h0Z"/>
  <path class="st0" d="M831.72-51.69c3.81-.03,9.77-2.58,12.09-5.68,1.62-2.05-2.07-5.35-3.31-3.96-.18-.08-.45.08-.66,0-2.05-1.01-4.24-1.67-6.59-1.97h-.66v-.03c-4.77-1.26-9.97,1.29-13.86,3.96-6.01,4.82,10,7.68,12.98,7.68h0Z"/>
  <path class="st0" d="M663.89,496.02c2.25-4.29-5.48-13.63-9.49-15.33-.2-.08-.45.08-.66,0h-.03c-19.64-9.04-6.82,13.61,2.32,16.08,1.34.35,7.32.28,7.85-.76h.01Z"/>
  <path class="st0" d="M897.3,451.03c5.55,13.03,10.05,1.04,11.31-6.44s-3.11-21.49-9.49-9.44c-2.27,4.29-3.61,9.17-1.82,13.89.1.58-.08,1.34,0,1.97v.03h0Z"/>
  <path class="st0" d="M613.24,248.4c-1.99,3.28-7.65,17.88-.76,17.8,6.29-.05,12.83-20.48,10.1-23-3.31-3.08-7.75,2.58-9.34,5.2h0Z"/>
  <path class="st0" d="M1011.47,246.35c.73-1.09,1.62-1.94,2.65-2.65,4.14-1.41,9.9-13.99,3.96-15.86v.03c-.35-.05-.96-.08-1.31,0-2.85,1.06-7.85,3-7.92,5.91h0v.02s-.02.04-.03.07c-1.09,1.36-1.77,2.27-2.58,3.85-.02,0-.03.03-.05.04-5.58,5.91-3.38,19.57,5.28,8.58h0Z"/>
  <path class="st0" d="M400.26,389.59c-.28-.1-1.62-.08-1.97,0-6.99,1.54-12.68,6.14-15.83,12.55-.08.18.08.45,0,.66-3.94,12.15,10.07,4.09,14.37-.93.61-.71,5.02-7.5,5.1-7.98.3-1.77-.48-3-1.64-4.29h-.03Z"/>
  <path class="st0" d="M1009.1,261.98c-3.11,1.77-.38,14.54,1.46,17.55,8.66,14.16,13.43,2.4,8.84-8.11-.05-.2.05-.45,0-.66-.28-2.98-7.65-10.3-10.3-8.79h0Z"/>
  <path class="st0" d="M442.53,209.36c-.2.08-.48-.08-.66,0-12.83,1.84-16.59,30.43-1.29,15.6,3.99-3.86,14.16-20.28,1.94-15.6h.01Z"/>
  <path class="st0" d="M1003.07,61.5c9.52,8.16,7.98-5.28,5.78-11.24.58-.25.58-.48,0-.66-1.41-3.61-3.74-7.5-7.93-7.93h.03c-.23.03-.48-.05-.66,0-7.27,4.32-2.47,15.33,2.78,19.82h0Z"/>
  <path class="st0" d="M548.45,176.31c2.52-2.93,4.39-17.8,3.03-21.46-1.09-2.93-4.47-3.64-6.44-1.41-2.83,3.21-3.16,10.58-2.83,14.64.23,3,1.84,13.36,6.24,8.23Z"/>
  <path class="st0" d="M1049.2,349.14c6.77,2.37,15.35-4.8,17.55-10.96,1.72-4.82,1.41-5.1-3.77-4.72-.89-.05-2.57-.18-3.3,0-4.6.25-17.98,13.05-10.48,15.68Z"/>
  <path class="st0" d="M543.95,204.19c-4.22,2.2-12.93,13.51-7.4,17.09,3.86,2.5,11.72-6.46,13.38-9.8.48-.93,2.95-7.6,2.75-7.98-1.41-2.52-6.72-.35-8.74.68h.01Z"/>
  <path class="st0" d="M558.7,193.73c.3.18,2.42.48,2.55.38.3-.25,2.9-6.26,3.18-7.1,1.24-3.89,3.94-15.68-2.1-16.03-7.57-.45-10.3,18.86-3.64,22.75h.01Z"/>
  <path class="st0" d="M754.74-46.79c-2.5-6.54-15.17,3.03-16.51,7.93l.03-.03c-.05.18,0,.43,0,.66-.61,1.21-.45,7.6.3,8.03,4.65,2.7,17.52-8.43,16.18-14.62,0-.61.1-1.44,0-1.97Z"/>
  <path class="st0" d="M440.56,470.14c-.05.2.05.45,0,.66-2.22,5.3.15,14.01,3.74,18.33,7.3,8.76,7.98-2.32,6.99-8.84-.71-4.75-6.26-19.21-10.73-10.15h0Z"/>
  <path class="st0" d="M935.09,500.99c2.3-5.05,5.4-21.03-4.14-12.37-.2.2-.45.43-.66.66-11.51,8.84-5.96,35.43,4.8,11.72h0Z"/>
  <path class="st0" d="M1007.53,395.53c-.2.05-.48-.08-.66,0-12.95,6.41-7.12,9.54,3.99,9.62,24.87.15,11.99-15.93-3.33-9.62Z"/>
  <path class="st0" d="M461.11,445.27c3.71-.35,8.26-15.23,8.18-18.91-.28-11.59-7.57-6.72-10.25.86v.03h.03c-.08.18.08.45,0,.66-2.78,2.7-2.47,17.8,2.05,17.37h0Z"/>
  <path class="st0" d="M971.25,299.78c-.45-12.85-19.62-25.83-11.92-3.28.05.2-.05.45,0,.66.71,8.08,12.4,16.18,11.92,2.63h0Z"/>
  <path class="st0" d="M447.47,171.08c2.65-.76.1-9.04-.83-11.01-1.41-2.98-8.03-10.91-11.54-10.05-6.01,1.46.3,12.85,3.06,15.53v.03c1.16,1.11,8.16,5.83,9.32,5.5h-.01Z"/>
  <path class="st0" d="M531.93,367.83c5.55,3.23,5.96-9.39,5.58-12.83-.3-2.78-2.6-9.85-6.06-8.89-6.03,1.67-5.38,18.31.48,21.71h0Z"/>
  <path class="st0" d="M465.53,178.66c-1.19.33-2.47.66-3.86.98h-.03c-2.32,1.11-7.47,4.24-9.04,6.14-.93,1.11-.53,2.47-.86,3.11-.02,0-.04.03-.06.04-.64.1-1.38.23-1.89.64-3.16,7.17-4.27,12.73,5.28,7.93-.04,0-.1.02-.15.03.04-.02.08-.03.12-.05,7.04-2.02,12.17-11.49,10.48-18.81h0Z"/>
  <path class="st0" d="M497.67,151.95c-3.36,3.76-5.23,9.14-5.02,14.19.13,3.21,2.9,12.55,7.32,9.9,2.55-1.54,4.04-23.15-2.3-24.11v.03h0Z"/>
  <path class="st0" d="M897.3,476.73c-2.3-10.5-10.55-2.35-10.55,4.62-.08.38,0,.88,0,1.31-.88,3.36.05,6.56,1.97,9.37,6.56,9.57,8.33-4.12,8.58-9.37.05-.88,0-1.77,0-2.65v-1.97c-.05-.43.1-.96,0-1.31Z"/>
  <path class="st0" d="M1033.36,343.59c3.79.23,9.72-5.68,11.49-8.66s4.19-10,.3-12.02c-.35-.05-1.01-.08-1.31,0-4.34,1.51-7.15,5.2-9.42,8.94-1.34,2.2-6.49,11.44-1.06,11.74h0Z"/>
  <path class="st0" d="M800.46,262.97c3.89,2.2,8.03,2.6,7.78-3.11-.2-4.87-9.85-12.9-14.75-11.44-5.93,1.77,3.99,12.85,6.97,14.54h0Z"/>
  <path class="st0" d="M508.48,387.25c.15.53,1.16.23,1.74.61.3.2.33.96.76,1.06,2.95.68,6.79.56,9.47-.93,2.15-1.19,9.77-7.7,6.41-10.12v-.03c-4.85-3.46-20.12,3.41-18.38,9.42h0Z"/>
  <path class="st0" d="M410.18,340.08h-.66c-2.45-.83-3.79.08-3.96,2.65v.66c.1,4.77,13.66,17.32,17.4,13.71,3.74-3.61-8.08-16.94-12.78-17.02Z"/>
  <path class="st0" d="M606.22-71.89h-.03c-.4-.05-.91,0-1.31,0-4.65,1.31-8.76,5.45-10.55,9.9-.43,2.15-1.14,5.91-.66,7.93,7.73,2.35,18.2-11.16,12.55-17.83Z"/>
  <path class="st0" d="M937.37,259.13c-.93-1.34-3.94-1.46-5.08-.25-.2.08-.51-.08-.66,0-3.38,1.74-15.65,12.15-11.87,15.78s21.79-9.52,17.6-15.53h.01Z"/>
  <path class="st0" d="M840.94,283.92c1.26,2.15,9.49,13.03,11.36,6.84,1.44-4.77-5.3-14.67-9.12-17.37h-.01.01c-.18-.1-.28-.83-.68-1.01-1.64-.76-3.94.43-3.94,2.32.03-.07.08-.12.11-.18-.03.07-.07.13-.09.2-1.21,2.32.93,6.84,2.35,9.19h.01Z"/>
  <path class="st0" d="M474.39,399.67c.18.38,3.08,4.7,3.31,4.92,9.77,10.13,12.78,1.67,5.73-7.37-5.58-7.17-14.17-9.29-9.04,2.45h0Z"/>
  <path class="st0" d="M391.04,275.39c-7.04-16.49-12.5,8.36-5.76,13.76.18.13,3.13,1.49,3.53,1.57,5.3,1.11,4.04-11.89,2.22-14.67-.05-.2.08-.45,0-.66h.01Z"/>
  <path class="st0" d="M461.03,169.47c2.83-2.1-4.27-20.28-10.53-18.15-1.51,4.01-.86,7.88,1.24,11.51,1.19,2.07,6.79,8.48,9.29,6.64Z"/>
  <path class="st0" d="M810.84,397.52c-.15-.08-1.67-.08-1.97,0-3.86.68-6.62,5.1-7.9,8.51-1.19,3.13-2.75,9.47,1.59,9.59,3.64.1,14.59-15.02,8.28-18.1h0Z"/>
  <path class="st0" d="M616.52,277.08v.03c-2.02,1.99-4.87,4.8-3.06,7.9,4.09,1.39,15.68-5.61,15.12-9.8-.78-5.93-9.57-.63-12.07,1.87h.01Z"/>
  <path class="st0" d="M612.81,288.57c-1.21,4.92,6.36,13.51,11.11,12.78,5.53-.83,1.11-5.53-.93-7.75-2.95-3.21-5.58-5.08-10.18-5.02h0Z"/>
  <path class="st0" d="M624.73,205.04c-8.64-2.9-3.33,16.16.96,16.21,1.99.03,2.8-3.33,2.75-4.87-.03-.45-1.64-7.55-1.84-7.9-.53-.88-1.62-1.01-1.74-1.21h-.03c-.15-.28.91-1.57-.1-2.22h0Z"/>
  <path class="st0" d="M639.04,221.33c-3.99,1.09-3.56,12.2-.13,12.5,4.72.43,6.94-14.39.13-12.5Z"/>
  <path class="st0" d="M857.05,276.05c-1.82,2.78-3.89,9.24-1.01,11.97,2.47,2.35,4.67-6.46,4.97-8,.04-.09.07-.17.11-.26,1.63-2.74,2.22-7.6-2.33-6.23-1.42.44-1.35,1.46-1.61,2.2.28-.59.58-.78.87-.77-.32.31-.65.66-1,1.1h0ZM861.68,274.31c-.08-.16-.17-.29-.28-.4.08.05.15.08.24.16.02.02.03.12.04.24h0Z"/>
  <path class="st0" d="M656.72,174.37c1.11-2.47-.56-4.17-3.13-3.84-1.64.2-9.01,3.89-8.13,5.83,1.82,3.08,10.25.2,11.26-1.99Z"/>
  <path class="st0" d="M681.49,267.92s-.04-.04-.05-.07c.02.1.05.2.07.3,0-.07,0-.17-.02-.23h0Z"/>
  <path class="st0" d="M1031.95,370.45c-.25-.56-.48-.58-.66,0h-.02c.23-1.39-.13-2.47-.53-3.76-1.57-4.9-5.3-10.76-9.54-13.41-.53-.33-1.77-2.65-3.79-1.31-.2.15,1.11,3.51-1.31,4.62h0c0,4.27.15,7.68.66,11.89,1.77,4.52,3.11,7.8,5.93,11.89.05.04.08.1.13.14.36.54.64,1.05,1.11,1.66.02.06.06.11.08.17,8.22,10.13,7.93-.9,7.93-7.18,0-.04.02-.06.03-.09.98-.45.43-1.74,0-2.65-.05-.63,0-1.31,0-1.97h-.02Z"/>
  <path class="st0" d="M759.36,316.32s-.03.04-.05.06c.02-.02.05-.04.07-.06h-.03.01Z"/>
  <path class="st0" d="M519.74,194.82s.02.02.03.03c5,2.52,13.46,1.14,18.03-2.1,5.35-3.79,1.92-7.2-3.18-7.83-5.66-.68-8.79.15-13.53,2.65-.26.15-.48.29-.72.44.18-.16.42-.31.72-.44v-.03c-.56.3-1.49-.13-2.7.93-3,2.63-1.52,4.87,1.36,6.34h-.01ZM517.39,191.78c-.1-.08-.2-.14-.31-.25l.24-.04c.01.09.04.19.07.29Z"/>
  <path class="st0" d="M688.08,340.08s-.04-.01-.05-.02c0,.01.02.03.03.05l.03-.03h-.01Z"/>
  <path class="st0" d="M692.02,347.35h0v.03-.03Z"/>
  <path class="st0" d="M857.18,275.72c-.05.11-.1.19-.15.32.06-.1.11-.21.15-.32Z"/>
  <path class="st0" d="M519.11,335.46c-2.05-6.59-6.44-13.1-13.18-15.53-4.7-1.69-5.83-.91-5.25,3.94.96,8.08,7.5,17.35,16.19,18.13,4.49.4,4.09.13,3.56-3.23-.2-1.29.03-2.93-1.31-3.31h-.01Z"/>
  <path class="st0" d="M985.09,174.37h-.66c-7.25-3.94-4.6,4.49-2.9,8.51,2.1,4.9,6.06,10.86,12.15,9.97.08-5.86-2.52-13.58-7.27-17.17l-.66-1.31h0c-.15-.08-.45.05-.66,0h0Z"/>
  <path class="st0" d="M617.78,124.85c.43-.23.43-.43,0-.66v.66Z"/>
  <path class="st0" d="M723.05,250.29h0v.03-.03Z"/>
  <path class="st0" d="M732.95,130.79s0-.07.01-.1c-.01.03-.03.07-.04.1h.03,0Z"/>
  <path class="st0" d="M682.12,186.92h-.02s.01.02.02.03v-.03Z"/>
  <path class="st0" d="M866.29,108.34c.43,1.09,1.26,2.5,1.31,2.65l-1.31-2.65Z"/>
  <path class="st0" d="M942.85,305.74h-.02s.03.02.04.03l-.03-.03h.01Z"/>
  <path class="st0" d="M940.07,57.36c-.66-3.16-4.77-8.31-7.15-10.4-.23-.2-.43-.51-.66-.66l-5.28-2.65c-.2-.05-.45.05-.66,0l-5.28-1.31h-.66v.03c-3.06-.03-5.91-.93-5,3.28,1.21,5.68,7.75,14.49,13.56,16.21,3.59,1.06,12.27,1.21,11.11-4.49h.02Z"/>
  <path class="st0" d="M927.67,86.25c.38-3.46-4.49-12.27-7.02-14.8-3.23-3.23-6.21-3.06-10.15-4.7v.03h-.03c-.18-1.46-1.09-.81-1.97,0-.23,0-.43-.03-.66,0-1.89,1.01-2.25,4.37-2.05,6.29.13,1.16,1.11.96,1.31,1.49,1.92,4.8,4.8,10.2,9.75,12.57,2.47,1.19,10.38,2.93,10.81-.88h.01Z"/>
  <path class="st0" d="M803.57,128.82h-.63c-4.22-3.48-18.43-1.62-12.2,5.38,3.94,4.42,16.11,13.99,22.35,11.31,7.68-3.28-4.47-15.63-9.52-16.69h0Z"/>
  <path class="st0" d="M876.46,105.08c3.71,0,16.64-3.31,13.91-8.61-.18-.35-3.33-2.55-3.66-2.65-.4-.13-1.36.03-1.97,0h-.03c-4.14-.18-11.59,1.69-14.67,4.62-6.46,6.16.91,6.64,6.41,6.64h.01Z"/>
  <path class="st0" d="M909.82,60.79c.56-.3.58-.53,0-.66-.56-4.65-2.52-7.5-5.93-8.58l-1-.67c-.31-.22-.58-.4-.78-.52l-.18-.12c-.86-1.04-2.17-1.72-3.96-1.97-.28-.56-.5-.58-.66,0-.61-.45-1.31-.35-1.97,0h-.68c-1.46-.33-1.64.78-1.82,1.79-1.14,6.89,10.58,15.48,16.99,10.73h-.01Z"/>
  <path class="st0" d="M854.9,319.1c-6.69,1.34-11.64,9.01-12.3,15.45-.56,5.53,1.26,5.83,5.98,3.33,1.59-.83,6.72-5.91,7.7-7.47,1.87-2.95,4.9-12.57-1.39-11.31h.01Z"/>
  <path class="st0" d="M981.12,356.59h0c-6.26,0-12.35,5.61-15.83,10.55-3.61,11.19,5.48,7.15,10.81,3.21,2.5-1.84,6.31-7.63,6.14-10.71-.05-.93-1.11-3.06-1.11-3.06h-.01Z"/>
  <path class="st0" d="M831.8,336.59c2.3,4.57,6.77,4.95,7.42-.78.61-5.28-.33-9.7-2.65-14.22h0c-.01-2.71-1.65-5.22-4.57-4.54-.35.81-.38,1.77-.71,2.58h0c-2.15,5.48-2.2,11.59.51,16.97h0ZM834.58,317.63c0,.08.03.14.04.22-.06-.05-.11-.1-.17-.14l.13-.08Z"/>
  <path class="st0" d="M844.55,350.05c-3.53,3.13,7.55,10.4,9.82,7.17,1.94-2.8-7.2-9.49-9.82-7.17Z"/>
  <path class="st0" d="M717.13,13.93h-.02c.56.63.63,1.44,1.97,1.31h0c.47.51,2.93,2.48,3.28,2.63,2.25.91,5.48,1.31,6.59-1.31,1.11-2.63,1.94-12.07,1.31-14.72-.05-.18-.66-1.14-1.11-2.93-.98-3.99-3.43-12.93-7.45-14.7-.2-2.07-1.36-1.59-1.97-1.97v-.03c-8.31-5.23-11.44-5.71-11.87,5.61-.35,9.39,2.98,19.06,9.22,26.08.02,0,.03.02.04.02h.01Z"/>
  <path class="st0" d="M684.77-26.34c-.2-.05-.43.05-.66,0h0c-5.68-2.3-12.57-1.36-18.48,0-.2.05-.45-.05-.66,0-3.11,1.11-5.73,2.65-7.93,4.62-4.62,4.27-7.02,5.35-.35,9.27,11.82,6.94,21.61,8.05,33.35.63,7.35-6.54.13-10.5-5.28-14.52h0Z"/>
  <path class="st0" d="M682.14,13.96c1.14.28,2.93-.91,3.13-2.05,5.23-2.58,9.19-6.34,11.16-11.84.05-.2.5-.28,1.04-.3.86-8.13-1.62-10.66-7.42-7.6l.03.03c-1.29.45-7.04,5.86-8.26,7.25-3.28,3.74-7.17,10.15-4.87,15.1.53.33,4.54-.28,5.2-.58h-.01Z"/>
  <path class="st0" d="M709.49,25.17c3.43,1.92,8.58,3,12.47,2.58,3.69-.38,2.78-3.46,1.09-5.88-2.55-3.66-14.22-9.04-18.48-6.94-1.26.63-1.72,3.08-1.31,4.29.3.96,4.97,5.28,6.24,5.96h-.01Z"/>
  <path class="st0" d="M662.32,11.61c1.72,2.52,9.24,9.19,10.91,4.32,1.79-5.28-1.41-12.55-5.91-15.58v-.03c-8.56-5.78-7.93,7.04-5,11.29Z"/>
  <path class="st0" d="M697.29,19.23c4.32-8.28-12.2-8.51-15.17-3.96-.43.33-2.68,3.84-2.68,4.32,0,5.25,16.08,1.64,17.85-.35h0Z"/>
  <path class="st0" d="M877.5-11.8c-1.92,7.98,8.43,3.33,12.32,1.44,7.63-3.74,9.7-8.03,14.75-13.99v-.03h0c.4-.48.86-.88,1.31-1.31v-1.31h.03c1.74-3.03,5-12.85,1.67-15.25-1.72-1.21-10.93,2.88-12.9,4.04-8.89,5.2-14.29,16.97-17.17,26.41h-.01Z"/>
  <path class="st0" d="M803.01,43.4c-.45,6.01,4.49,21.71,9.54,25.25,6.06,4.24,7.17-3.03,7.42-7.6.38-7.22-4.8-20.05-9.77-25.02-.71-.68-2.05-2.05-3-2.05v-.03c-2.65,0-4.04,7.3-4.19,9.44h0Z"/>
  <path class="st0" d="M832.18-3.64c2.27-1.89,3.61-2.68,5.48-5.08,3.38-4.34,8.28-14.29.86-17.25-10.07-4.01-16.54,15.71-14.37,22.95.48,1.62,3.84,2.75,5.33,2.35,1.49-.4,1.84-2.27,2.7-2.98h0Z"/>
  <path class="st0" d="M835.26,17.24l.03-.03c6.03,2.2,21.39.35,20.45-7.93-2.02-3.69-14.64-6.94-18-5.25-.78.4-.48,2.83-1.46,0-9.44,2.65-8.76,9.37-1.01,13.21h-.01Z"/>
  <path class="st0" d="M872.25-7.46c2.52-1.77,1.16-10.86.63-13.58v-.03c-1.11-3.11-2.78-7.37-5.25-9.59-4.09-3.66-5.93-2.4-6.56,2.75-.73,6.01,1.21,11.24,4.55,16.11,2.1.18,4.47,5.86,6.64,4.34h-.01Z"/>
  <path class="st0" d="M861.67-.26c.3-3.56.4-1.67.68-2.73.88-3.61-3-5.63-4.65-8.16h0c-2.63-1.34-10.13-3.84-10.58,1.01-.28,3.03,6.84,11.16,8.61,14.17,5.28,4.32,5.53.33,5.93-4.29h.01Z"/>
  <path class="st0" d="M810.99,1.26c-.15-.23.53-1.11.2-1.84-1.16-2.5-7.4-7.75-10.23-5.63-7.02,5.25,6.01,15.86,10.05,14.77,2.05-.56,2.3-4.49,1.69-6.11-.33-.88-1.57-.88-1.74-1.16v-.03h.03,0Z"/>
  <path class="st0" d="M822.78-4.2c0-1.97-2.22-8.18-3.56-9.39-.13-.1-2.7-1.29-2.95-1.36-2.47-.61-3.08,1.16-3.64,3.28-2.25,8.61,10.1,19.34,10.15,7.47Z"/>
  <path class="st0" d="M821.95,31.03c3.71-4.32-4.7-17.45-9.19-14.14-3.76,2.75,2.78,17.09,9.19,14.14Z"/>
  <path class="st0" d="M757.97,117.25c-.08,3.28,13.58,7.1,16.51,4.9.2-1.41.1-3.21-.81-4.37v-.03c-2.85-3.61-15.55-7.45-15.71-.51h.01Z"/>
  <path class="st0" d="M792.36,86.73c.78-1.41,1.92-11.13.58-11.97v.03c-4.04-2.52-6.51,7.32-6.36,9.97.08,1.16,1.09,4.67,2.17,5.08,2.78,1.09.86-1.79.96-1.94.13-.15,2.02-.03,2.65-1.16h0Z"/>
  <path class="st0" d="M717.85,142.3c6.31,4.19,9.82-1.69,8.86-7.55-.53-3.18-7.47-16.51-9.8-18.94-.62-.65-1.88-.56-2.3-.95-.16-.22.4-2.57-2.75-3.57-4.77-1.52-4.12,4.75-4.01,8,.23,7.27,3.69,18.81,10,23h0Z"/>
  <path class="st0" d="M742.84,15.95c2.65-2.95,6.31-9.59,3.99-13.41-1.31-2.15-8.43.98-9.72,2.37-1.21,1.29-4.19,6.16-4.95,7.93-2.75,6.29-4.07,11.72,4.75,8.36v.03c1.24-.91,4.92-4.14,5.93-5.28Z"/>
  <path class="st0" d="M759.13,63.24c1.67-1.16,5.4-5.25,6.41-7.12,5.83-10.88-3.59-8.66-9.72-4.44-2.95,2.02-9.14,8.84-8.26,12.62,1.09,4.57,9.19.56,11.56-1.09v.03h.01Z"/>
  <path class="st0" d="M745.04,61.35c4.65-1.44,3.41-20.98.3-24.14-4.04-4.12-6.87,5.86-7.1,8.76-.33,4.24.33,17.37,6.79,15.38h.01Z"/>
  <path class="st0" d="M741.53,73.07c-.71,4.54,10.78,17.32,14.47,14.77v-.03c2.88-1.99-1.69-11.72-3.61-13.76s-10.15-5.53-10.86-.98Z"/>
  <path class="st0" d="M762.64,37.72c.45-1.72-.75-1.95-1.29-2.6l-.03-.05h0c-1.57-2.05-9.22-8.58-10.5-4.19-1.04,3.59,10.5,15.81,15.1,14.75.83-2.83-.53-6.91-3.28-7.9h0ZM761.53,35.47l-.14-.28c.06.08.11.17.14.28Z"/>
  <path class="st0" d="M715.8,102.13c3.03-.53,10.28-4.04,5.02-6.72v.03c-3.79-1.94-13.51-.61-15.93,3.06-3,4.52,8.46,4.07,10.91,3.64h0Z"/>
  <path class="st0" d="M763.3,17.24c-2.07-1.59-4.42-3.66-6.79-4.75-3.41-1.54-10.5-3.64-7.73,2.78.28.66.98,1.29,1.31,1.97.38.08.88-.05,1.31,0v-.02s.02.01.03.02c.66,1.69,10.23,5,12.55,3.96.05-1.34-.2-2.7-.66-3.96h-.03,0Z"/>
  <path class="st0" d="M686.18,174.01c-.81,4.34,11.97,5.4,13.69,2.93.25-.35.18-1.69,0-2.17-.86-2.3-13.33-2.63-13.69-.76Z"/>
  <path class="st0" d="M700.3,148.61c-3.53-3.31-16.18,5.43-15.55,10.58-.2.33-.83.48-1.36,1.59-1.34,2.8-3.66,11.69,1.54,10.83,4.04-.66,14.42-12.15,15.02-16.39h-.03c.02-.09.03-.16.05-.25-.01.08-.02.18-.03.25.93-1.24,1.39-5.63.35-6.62h.01Z"/>
  <path class="st0" d="M573.17-80.07c-.03,1.24,2.05,7.3,2.68,8.89.02.01.03.02.06.04.2.49.45.86.62,1.24,0,.01,0,.03-.02.04,1.89,4.37,4.19,7.65,7.27,11.21.25.2.48.56.66.66,7.25,2.93,7.42-3.43,7.88-8.94.58-6.97-.18-12.6-3.26-18.79-.02-.02-.04-.03-.06-.05.02,0,.04.02.06.02-.83-1.72-1.16-1.99-1.97-3.31h0c-1.81-2.92-6.2-11.83-10.48-7.48-1.51,1.54-3.96,12.5-3.21,13.33.58.63,2.15-.81-.18,2.1l1.31.66c-.43-.03-1.36-.13-1.36.38Z"/>
  <path class="st0" d="M576.75-25.43v-.03c3.06-2.12,7.98-4.44,7.04-9.14-.88-4.44-12.83-1.57-16.03-.18-2.1.93-6.01,3.99-7.37,5.81-6.19,8.33-.45,9.04,7.17,7.85,4.8-.76,5.73-1.92,9.19-4.32h0Z"/>
  <path class="st0" d="M546.91-16.07c-.86-.15-1.87.35-2.73.3h0c-3.11.43-2.25,5.58-1.31,7.93,1.51,3.79,7.52,9.67,11.21,11.56,2.52,1.31,9.82,5.23,9.87.08,0-1.44-2.95-6.16-3.94-7.68-.01,0-.02-.02-.03-.02h.03c-.53-.81-.63-1.06-1.31-1.97.07.13.1.25.13.37-.04-.13-.1-.2-.13-.34-1.99-2.63-8.61-9.7-11.79-10.23h0Z"/>
  <path class="st0" d="M546.91-34.95c.96.66,5.96-1.67,7.12-2.32,4.57-2.65,11.16-9.82,9.97-15.45-.68-3.23-6.31-.83-8.13.15-1.51.81-6.87,6.67-7.73,8.43v.03h.03c-.71,1.44-2.65,8.21-1.26,9.17h0Z"/>
  <path class="st0" d="M575.64-48.36c2.2.45,10.93-.58,10.68-3.26-.08-.78-3.86-5.28-4.52-5.73v.03c-2.83-1.97-9.19-3.64-12.7-3.16-4.57.63-4.97,3.53-2.47,7.1,1.16,1.64,6.94,4.6,9.01,5.02Z"/>
  <path class="st0" d="M511.18,21.2c-.08-.68-1.16-4.44-1.36-4.6-6.94.71-12.32,9.32-14.49,15.45-1.09,3.08-3.03,13.21-1.34,15.86.3.51.83-.18,1.04-.1.28.13-.3.86-.2.98,1.59,1.79,5.35-.73,6.79-1.87,1.54-1.21,6.03-8,6.92-9.87,2.3-4.85,3.33-10.53,2.65-15.86h-.01Z"/>
  <path class="st0" d="M528.35,45.62h-.03v.05c-2.52-1.82-2.3.13-3.16.58-2.12,1.14-1.92.53-4.09,2.7v.63c-1.59.33-1.01,1.87-1.31,2.63h.02s-.02.03-.02.05c-.83,1.94-1.92,3.91-2.65,5.93-.08.4.05.88,0,1.31-.51,4.49-.93,7.98,0,12.55,1.64,1.84,3.94,2.5,5.76.45,2.45-2.78,5.18-9.62,6.06-13.43.53-2.37,1.01-8.56.73-10.81l-1.31-2.65h0Z"/>
  <path class="st0" d="M514.59,45.19c1.72,2.88,4.52,3.64,6.49.43,1.39-5.55,1.87-11.59.38-17.19-.2-.71-2.2-5.58-2.45-5.78-3.23-2.73-5.98,5.76-6.51,7.8h.03c-.03,4.65-.43,10.58,2.07,14.75h-.01Z"/>
  <path class="st0" d="M538.7,88.34h.03c2.45-2.15,1.72-11.49.66-14.47-.98-2.78-6.24-10.76-9.37-6.46-1.87,2.55.23,13.21,1.59,16.21.91,2.05,4.92,6.59,7.1,4.72h-.01Z"/>
  <path class="st0" d="M553.3,78.44c-.25-1.82-1.49-2.8-3.33-2.32-3.28.83-8.84,8.74-8.43,12.09.78,6.72,12.55-4.47,11.77-9.77h-.01Z"/>
  <path class="st0" d="M842.71-61.8c.68.65,1.04.78,1.36.91l.4.26c.25.18.43,1.16.66,1.31,2.73,1.69,2.83,1.69,4.62,0,.43-2.58,2.45-4.7,3.16-7.1,2.32-7.78,1.54-18.13-2.47-25.27,0-.01-.01-.03-.02-.04,0-.02-.02-.04-.02-.06-.33-3.59-2.75-7.09-6.57-7.14-.05,2.05-1.79,1.82-1.97,1.97-.23.2-.43.43-.66.66h.06s-.04.02-.06.03c-8.26,9.06-6.99,25.83,1.31,34.34l.21.14h-.01Z"/>
  <path class="st0" d="M1047.78,240.39s-.02.02-.02.03h.02v-.03Z"/>
  <path class="st0" d="M476.83,526.93h.01c3.43-1.97,8.23-8.21,8.46-12.37,0-.2-.48-3.18-.63-3.31-1.09-.91-5.86-.56-7.15.48h-.03c-.2.03-.45-.05-.66,0-9.14,3.11-20.25,10.38-19.8,21.13.08.4-.13,1.06,0,1.31,3.61,4.04,10.88-.45,13.86-3.31,0-.01.02-.02.02-.04v.04c1.05-.58,1.29-.86,1.96-1.31.58.56,1.27.09,1.3-.66,0-.01.02-.02.03-.03,1.14-.8,1.39-.86,2.61-1.93h.02Z"/>
  <path class="st0" d="M468.94,75.34s-.05-.04-.07-.05c.03,0,.04.02.07.03.23.58.45.58.66,0,.4.24.78.35,1.13.38-.27.42-1.2,1.19-.88,2.28,1.19,4.09,11.36,1.79,14.44.51,10.3-4.27,1.59-8.61-1.54-6.79-.23.15,0,4.44-1.94-.3-.2.05-.45-.05-.66,0-.4.1-1.16.45-1.97.66l-1.97.66c-.2.05-.45-.05-.66,0-.43-.07-.87-.06-1.3.04.51-.32.93-.73,1.3-1.35.43.18.81.28,1.04.15.51-.3,4.44-9.17,4.65-10.81,1.34-1.01,1.67-1.41.73-2.9l.18-1.64c.33-.3.38-.53,0-.66.71-3.33.08-8.74-2.65-11.21v-.03c-.35-.1-.88.08-1.31,0-5.81,3.03-8.66,9.24-10.55,15.17-.53.3-.56.53,0,.66-.91,2.8-1.14,5.45-.66,7.93v.04c-1.28,1.91-1.32,8.29,1.98,7.26l-.02-.03Z"/>
  <path class="st0" d="M836.57,745.44s.03-.01.04-.03l-.04-.07v.1h0Z"/>
  <path class="st0" d="M991.65,782.65c-1.01-.38-1.92-.13-2.62-.3-.29-1.11-1.15-.97-1.86-1.24l-.12-.08c-11.31-4.9-23.33-8.36-35.5-10.38-14.22-2.35-28.41-.45-40.63-8.86-.66-.45-1.24-.91-1.74-1.54-.03-1.09,10.58-2.75,12.2-2.95,17.88-2.17,38.38-2.5,56.76-3.96,1.57-.1,8.16.61,8.23-.98,0-.1-.71-1.44-1.14-1.64-1.19-.56-12.09-1.77-14.37-1.97-20.33-1.87-43.25.18-64.01.28-16.29.08-34.79,1.19-50.65-1.11-5.05-.73-8.23-1.34-13.31-1.82-1.91-.18-3.89-2.54-6.29-.68l1.93,3.23c4.37,2.98,11.49,6.06,16.51,7.93,6.54,2.42,12.9,3.41,19.8,4.62,8.38-.18,11.94.83,19.8,2.65,3.31.78,7.2,1.34,10.43,2.45,12.22,4.17,17.93,14.32,31.66,15.86,10.81,1.24,23.2-.03,34.14.86,9.87.78,19.77,3.43,29.09,6.59,1.57-.03,2.3-1.84.93-2.95-.4-.3-8.05-3.56-9.24-3.99v-.02Z"/>
  <path class="st0" d="M525.45-25.56c-5.13.33-8.31,1.26-7.68,7.17,4.09,1.99,13.89.38,17.17-2.65v.03c1.41-5.23-5.93-4.77-9.49-4.54h0Z"/>
  <path class="st0" d="M571.05,746.93c3.06-.58,7.25-.23,10.35-.86,15.2-3.08,21.08-11.19,39.09-9.44,9.87.96,21.54-1.89,31.11-4.17,1.51-.35,6.51-.61,6.74-.86.1-.08.1-2.52,0-2.63-.98-1.04-24.52,1.64-28.73,1.34-5.25-.38-7.93-3.33-11.89-3.94-15.53-2.35-28.38,9.29-43.13,12.12-8.23,1.57-17.45,1.34-26.08,2.37s-17.17,2.98-25.8,3.91c-13.36,1.46-25.17,1.46-37.77,7.1-3.18,1.41-7.78,2.07-8.74,6.11,1.62.18,3.11-.23,4.62-.66h-.03c19.04-5.35,39.29-4.49,59.08-5.08,11.72-.35,19.9-3.13,31.18-5.33v.02Z"/>
  <path class="st0" d="M437.93,264.13h-.03v.03h.03v-.03Z"/>
  <path class="st0" d="M439.07,264.31c-.34-.37-.89-.08-1.13-.15,0,.02,0,.04.01.06-.01-.02-.03-.04-.04-.06-5-3.61-8.36,6.36-7.93,10.55v1.31c-.25,29.69,17.83,14.92,10.55-6.59-.1-.38.1-.96,0-1.31l-.66-1.31s0-.01-.02-.02h.04c-.25-.66-.58-2.2-.83-2.47h0Z"/>
  <path class="st0" d="M1018.09,79.33h.66c4.32.25,8.91-.38,12.78-2.07,3.86-1.69,8.53-6.82,3.06-9.49-6.72-3.31-13.51-1.41-19.8,1.64v.03c-.18.08-.48-.1-.66,0-7.8,5.83-3.81,8.23,3.96,9.9h0Z"/>
  <path class="st0" d="M516.46-83.08h.03c-2.75.91-4.34,5.28-5.35,8.06-.66-.24-.81.49-.78,1.34-1-1.45-3.3-2.46-4.22-.81-1.21,2.17-3.64,12.27-4.34,15.38-3.08,13.63-2.55,24.11,2.12,37.39,3.94,7.75,6.94,16.61,7.17,25.25l-10.53-.86h-.66c-1.64.43-3.18.43-4.62,0h-3.96c-3.56.53-7.1.53-10.55,0h-1.31c-.83.5-1.82.5-2.65,0h-1.31l-29.04-1.97h-.66l-7.27-1.97c-.38-.1-.93.1-1.31,0-3.5-2.79-7.22-5.01-11.17-6.57,0,0,0-.01.01-.02v-.66c-.18-.05-.43.05-.66,0-2.64-.51-2.5,1.11-1.44,3.07.03.08.04.16.07.24,15.6,15.25,42.44,20.17,64.18,17.93,11.21-1.77,20.63.4,28.23,6.51.28,1.41,1.36,2.52,3.21,3.28,11.24,11.19,18.86,24.72,26.39,38.51,14.47,18.43,29.34,37.85,23.33,62.54-1.11,4.57-5.88-1.92-6.44-4.27l-1.62-.35-.2-.6c.07.17.15.36.25.57l-1.31-3.96c.09.34.16.62.23.86l-.28-.84c1.64-1.84-.33-6.59-1.39-8.89-2.9-6.24-6.56-8.89-12.55-12.02-9.19-2.73-17.07-7.07-23.68-13.05l-1.99-.35c-3.76-4.77-7.07-9.92-9.95-15.45-1.54-2.35-3.71-3.16-4.54.08-.71,2.65,3.28,14.42,5.02,16.61.13.15.48.15.88.08.04.13.09.24.13.37.44,2.17,1.52,5.31,2.58,7.05.43.68,1.08.49,1.25.48,0,0,0,.01.01.02-.43,1.92,4.54,7.2,6.29,7.85,6.94,1.01,13.74,2.58,20.4,4.75,5.05.18,6.99,13.21,4.72,14.19-2.8.33-5.58.86-8.31,1.59-.23-.58-.43-.58-.66,0-.4-.13-.86.08-1.31.66-.23-.58-.43-.58-.66,0l-3.96,1.31c-.23-.58-.43-.58-.66,0-2.07.71-4.07,1.59-5.93,2.65-.23-.58-.43-.58-.66,0l-3.31,1.97c-.23-.58-.43-.58-.66,0l-11.89,5.93c-.23-.58-.43-.58-.66,0l-6.59,2.65c-.35-.56-.58-.61-.66,0-6.51,1.39-11.92-2.8-16.51-6.59,0,0-.02-.01-.03-.02h.05c-.58-.63-.88-1.67-1.97-1.97.03.05.05.1.07.15-.03-.05-.07-.08-.1-.13-.3-1.77-1.21-3.59-2.68-5.45-3.48-10.28-6.44-20.76-8.84-31.46-2.02-3.81-3.59-7.65-4.72-11.51-1.79-1.41-3.38-3.31-4.77-5.63-3.03-3.66-13.89-12.83-18.23-13.38-5.33-.66-1.97,6.41,1.62,6.72l.08.05c.31.79.94,1.16,1.79,1.2l.1.06c10.18,11.61,16.06,23.63,18.08,39.29.35,8.69,1.19,17.3,2.45,25.83,2.35,4.37,1.57,5.61-2.35,3.79-10.91-4.42-22.62-6.82-34.24-3.96-2.98.73-14.92,4.82-14.9,8.64.02,2.96,4.98,1.8,8.16.55-1.53,1.08-2.96,2.5-3.94,3.49-4.17,4.24-10.43,18.84-3.61,22.57,2.37,1.29,4.29-.35,5.96-1.89,3.84-5.78,9.92-16.69,7.93-23.76v-.03c-.62-1.23-1.44-1.77-2.36-1.87.58-.28.93-.66,1-1.16,11.34-1.11,22.78,1.94,32.98,6.41,14.44,4.09,28.81,10.58,43.93,3.99,14.11-6.16,17.83-11.44,34.97-9.92,1.24.1,2.55-.53,3.31-.43,1.41.2,15.33,20,17.45,22.85.15.22.3.4.46.56.71,1.05,1.38,2.21,2.25,3.35v.03c.56.76,1.12,1.52,1.69,2.28.06.13.14.24.2.37,2.17,2.88,8.43,11.87,10.73,13.69,6.99,5.48,25.65,6.44,34.97,8.94,1.77.45,9.27,6.41,10.86,7.95,6.44,6.31,11.24,13.96,18.05,19.9,3.74,3.26,6.79,6.16,10.53,9.62.05.06.11.11.15.17.4,2.36,2.86,3.5,4.56,4.61.2.16.37.34.57.5,1.54,1.21,3.43,2.25,4.62,3.31.42.34.76.74,1.14,1.11.78,1.05,1.55,2.23,2.5,3.06.1.16.23.29.32.46,1.87,4.72,1.06,5.76,1.97,9.47.43,1.69,1.24-1.44.28,3.03-.48,2.3-.13,5.08-.43,6.82-1.36,7.6-7.1,20.68-2.78,27.55.53.83,1.59.88,2.27,1.34l2.65,1.31c6.59,4.32,8.38,8.74,11.54,15.86,2.22,5,3.89,10.25,5.68,15.43,1.06,2.15,3.76.71,3.86-1.21.08-1.57-2.25-6.21-2.52-8.69-1.14-10.02-.56-18.33-2.7-28.66-.06-.35-.17-.69-.26-1.03l.33,1.01v-.03c-.25-1.24-.35-2.58-.66-3.96-.01-.02-.02-.03-.04-.06-.25-.86-1.23-1.69-1.28-1.89-.26-1.12-1.16-4.67-1.95-7.9v.08c-.03-.1-.05-.21-.07-.31,0-.03-.02-.07-.03-.1,0,.01.02.02.03.04-.69-2.82-1.28-5.33-1.28-5.66,0-.15,1.06-1.97,1.16-3.13.61-6.69,2.83-15.17,2.15-21.29t-.01-.03h.01v-.03h.03c-.51-4.47-.76-4.95-3.31-8.58.21.22.3.46.35.72-.15-.22-.28-.44-.45-.67-3.96-5.66-9.65-9.34-14.47-14.24-4.17-4.22-11.39-11.99-14.09-16.97-5.18-9.57-5.93-15.35-16.36-21.23-10.43-5.88-20.12-8.56-29.97-16.92-17.85-15.17-14.24-26.66-16.84-47.52-2.93-10.23-7.37-19.95-13.33-29.11l-6.46-14.44c-.05-.2.05-.45,0-.66-13.28-30.7,4.9-56.61,22.67-80.24,5.86-9.24,6.54-19.69,4.39-30.22-.78-3.91-1.84-8.96-4.62-11.64-.01-.02-.04-.03-.05-.05h.1v-.66c-.63-.28-1.19-.78-1.97-.66v.99c-.04.1-.06.22-.05.38l-1.31,2.05c1.59,20.68-2.42,37.72-18.66,51.69l-.48,2.37c-.55.53-1.43.66-1.29,1.94l-.03.04-2.17.86c-3.21,5.55-6.19,11.24-8.91,17.04-3.21,3.66-5.35,7.1-5,12.25-15.78-9.29-16.56-27.02-10.2-42.44.03-.78-.25-1.72-.78-2.25,2.05-4.39,4.92-21.44,2.68-25.53-2.4-4.37-6.54-.08-4.32,1.92l-.33,2.5-1.14,1.74c1.44,3.74,1.24,6.69-.63,8.84.35,2.45-10.28,21.31-11.13,20.5-2.7-2.52-7.37-12.78-7.7-16.44-.05-.48-.61-.73-1.16-.81l-.08-.05c-6.16-16.44-9.01-35.75-6.46-53.12.41-.24.66-.53.79-.85.04.1.08.19.12.22.18.18,4.72.71,5.3.71,5.25-.25,13.56-6.54,15.5-11.59.05-.4,0-.88,0-1.31.3-1.26.61-2.95.33-4.19-.25-1.14-12.98.28-13.53,3.53v.03h-.66c-.2.05-.51-.08-.66,0l-.66,1.31v-.07ZM678.76,262.87s.04.02.07.03v.03s-.04-.04-.06-.06h-.01ZM680.85,256.04c0,.16-.03.31-.1.45.03-.15.07-.3.1-.45ZM684.04,278.04v-.02h.07s-.03.04-.04.06c0-.01-.01-.03-.02-.04h-.01ZM682.81,276.77s-.05-.04-.09-.04c-.01-.16-.03-.34-.04-.51.03.15.07.3.11.49v.07h.02ZM682.8,274.08c-.13.42-.19.73-.21,1.02-.03-.33-.07-.67-.11-1.02h.32ZM680.53,265.52s-.02-.05-.04-.08c0,.01.02.02.03.03v.05h0ZM679.44,262.24s0-.02-.02-.03c.02-.1.05-.21.08-.32v.29l-.06.06ZM682.81,237.74s0,0-.01.03v.06s-.05-.04-.08-.06v-.19c.04.06.08.12.08.17h.01ZM682.14,232.79c.11.31.09.5.03.65-.1-.37-.22-.75-.36-1.12.13.11.25.25.33.47h0ZM518.45-84.39h-.02.02Z"/>
  <path class="st0" d="M1004.88,410.05c-.38-.08-.88.05-1.31,0h-.03c-.58-.56-1.36-.48-1.97,0h-.66c-.33,1.11-2.65.43-1.69,3.96,1.72,6.24,18.84,19.49,24.52,15.23,2.83-2.12-3.41-10.66-5.4-12.52-2.52-2.35-10.12-6.03-13.46-6.67Z"/>
  <path class="st0" d="M671.82-48.18c7.85-.71,21.03-6.69,22.14-15.5.78-6.36-3.23-6.34-8.53-6.21h-.03c-.43,0-.88-.05-1.31,0l-1.97.66c-.2.08-.48-.08-.66,0-5.23,2.2-13.86,11.82-14.47,17.57-.43,4.14,1.24,3.81,4.82,3.48h0Z"/>
  <path class="st0" d="M536.28-36.24c-.25-1.46-2.25-4.77-2.65-6.59v-.03c-3.48-3.89-7.4-11.51-13.48-11.19-3.41.18-3.03,3.21-3.03,5.91v.66c.66,4.75,11.19,17.25,15.5,17.52,4.12.28,4.22-2.93,3.66-6.29h0Z"/>
  <path class="st0" d="M963.3,421.94c.03.43-.08.96,0,1.31,1.72,4.19,8.16-.93,10.76-2.75,4.6-3.23,10.1-9.06,10.88-14.9.35-2.63-.4-2.37-1.19-4.12-.4-.05-.88,0-1.31,0h-.03c-.3.33-.76.33-1.31,0h-.66l-1.31.66c-.2.05-.45-.05-.66,0-8.05,4.29-15.05,9.8-15.17,19.8h0Z"/>
  <path class="st0" d="M1038.14,52.13c3.51-5.33,7.73-12.25,6.16-18.89-.83-3.56-4.49-1.77-7.07-1.49v.03c-.2,0-.45-.03-.66,0-.28.48-8.21,3.41-10.13,4.72-7.57,5.13-12.27,18.31-11.97,27.29.03.53.23,1.06.35,1.59,10.45.08,17.67-4.75,23.31-13.26h0Z"/>
  <path class="st0" d="M944.16,81.3c-.18.1-.51-.1-.66,0-3.69,3-8.89,8.16-7.27,13.21,6.49,3.74,15.25-2.75,21.11-5.28-.08-1.14,3.89-5.83,3.96-7.93v-.66c-.03-1.29-.2-2.5-1.31-3.31-.18-.05-.43.03-.66,0-1.46-.18-4.44-.18-5.93,0-.2.03-.45-.03-.66,0-3.18.48-5.88,2.45-8.58,3.96h0Z"/>
  <path class="st0" d="M618.11-13.79c.71-.05,6.11-2.5,7.17-3.06,5.38-2.88,15.65-10.91,3.53-12.62-6.34-.91-10.48,1.04-15,5.13-1.31,1.21-5.35,4.97-4.9,6.79.56,2.15,7.37,3.89,9.19,3.76h.01Z"/>
  <polygon class="st0" points="1049.1 115.61 1049.1 115.6 1049.1 115.6 1049.1 115.61"/>
  <path class="st0" d="M1049.07,115.59s.02,0,.03.01h-.03Z"/>
  <path class="st0" d="M1065.89,106.37c-8.91-7.32-17.78-8.18-27.6-1.89-3.86,2.47-1.57,4.09,1.34,6.39,3.56,2.83,8.99,3.23,9.37,3.59.25.25.11,1.11.1,1.15,1.9,1.29,12.08.34,14.52-.32,7.47-1.97,8.16-4.07,2.27-8.91h0Z"/>
  <path class="st0" d="M1097.93,84.58c-.15-1.46-.66-2.55-1.97-3.31-.2-.08-.45.08-.66,0-1.39-.45-3.33-.35-3.96-1.97h-1.97l-.03-.03c-10.3.03-18.51,1.87-26.71,8.61-3.51,2.9-6.34,4.72-1.14,7.04,11.03,4.95,29.9,1.06,36.44-9.7.05-.2,0-.43,0-.66v.02Z"/>
  <path class="st0" d="M410,306.19c1.01-8.31-6.29-5-10.6-2.32-3.41,2.12-11.72,10.93-8.21,14.92.15.18,3.59,1.49,3.81,1.49,4.62.03,14.39-9.19,15-14.09Z"/>
  <path class="st0" d="M810.16-86.41c-.43.05-.93-.08-1.31,0-2.98.63-10.25,4.72-12.17,7.3-9.17,12.22,13.76,6.39,19.04,1.21,7.3-7.15,3.13-9.47-5.53-8.51h-.03,0Z"/>
  <path class="st0" d="M540.22,427.57c-.76-8.46-4.19-15.23-9.01-21.99-2.35-3.28-4.04,2.02-4.52,3.81-2.35,8.84-.4,23.51,6.94,29.72h.03c2.52,2.12,3.59,1.16,4.87-1.39,1.82-3.61,2.05-6.24,1.69-10.15Z"/>
  <path class="st0" d="M1043.82,353.28s-.02-.03-.02-.04c0,0,.01,0,.02.01,2.22.68,5.33,1.34,2.65-1.97h-.03l-1.31-.66c-.2,0-.45-.05-.66,0-.28-.61-.91-.48-1.31-.66-.81-1.01-2.12-1.69-3.96-1.97-.2-.08-.45.05-.66,0-1.28-1.03-2.39-1.26-3.29-.66-.02,0-.04-.01-.07-.02-.05-.63-.71-1.06-1.97-1.31-.2-.05-.45.05-.66,0-13.76-4.49-27.62-8.23-41.59-11.21-.01-.02-.05-.04-.06-.06.04,0,.08.02.11.03l-.66-1.31c-.2-.05-.45.05-.66,0l-.03-.03c-1.29-.28-2.65-.48-3.96-.66l-.02.04h0c-.27-.55-.49-.58-.64-.05-.46-.81-1.34-.45-1.93-.62,0,.01.01.01.02.02l-.07-.02c-1.92-1.01-4.12-1.89-6.59-2.65-.38-.1-.96.1-1.31,0-4.29-2.22-8.46-4.42-12.55-6.59h.02l-4.62-3.96c.09.11.21.28.35.48-.12-.16-.25-.31-.37-.48-3.66-5.1-9.59-10.25-15.17-13.21h.02c-3.19-2.13-7.68-5.29-11.78-3.3h-.12l-.58-.61-14.57,1.39c-4.39,2.42-17.04-10.18-16.97-11.82.25-4.65,11.24-4.49,14.62-4.19,11.82,1.82,23.38,1.67,34.67-.43,7.52-4.22,14.77-8.94,21.74-14.22,9.06-3,18.23-5.76,27.5-8.21,7.35-2.5,18.13-6.99,20.1-15.12-6.34,1.89-12.73,3.76-19.16,5.66h-.66c-6.21.93-12.37,2.25-18.48,3.96-.43.05-.88,0-1.31,0l-9.29,3.71c-9.9,5.02-19.82,9.87-30.32,13.46-.4.08-.91-.08-1.31,0-9.82,3.16-19.34,2.78-29.04-.66h-.66c-6.09-.78-12.27-.68-18.58.3-2.78.05-4.52-1.49-4.92-4.27l-.28-9.04c.05-4.72-1.49-7.85-4.62-9.44-.2-.05-.45.08-.66,0-5.38-2.7-10.53-5.81-15.45-9.32-9.01-6.79-9.54-10.5-1.54-19.09,1.72-2.9,2.27-6.44,1.72-10.58,4.82-1.64,6.62-4.27,5.38-7.88,0-.23-.05-.48,0-.66.78-1.92,2.75-2.8,4.67-3.26,8.03.13,9.32-4.07,3.89-12.57v-.66c-1.26-5.05.48-8.23,6.09-7.88,18.38,3.23,30.98-3.08,40.95-18.94,5.66-5.88,25.98-14.57,32.37-5.98,10.28,8.13,18.2,13.58,31.23,15.23,7.07.88,34.82,4.37,40.02,1.16,6.92-4.27-8.74-4.17-11.11-3.71l-3.59-.35h-1.31l-2.65-.66h-.66c-5.33-1.04-10.63-2.22-15.83-3.96h-.66c-6.31-1.51-12.62-4.7-17.83-7.93-.18-.1-.48.1-.66,0-3.61-2.6-7.07-5.18-10.35-7.68,7.35-2.93,14.11-6.74,20.25-11.46l.05-.04s-.02.02-.02.04c1.19-.78,2.75-1.04,3.31-2.65-.03.02-.06.03-.08.05l.06-.05c8.05-7.1,16.01-14.47,23.81-22.14,11.31-7.25,23.81-12.15,37.55-14.75,4.49-1.09,10.66-4.09,3.99-5.38-.38-.05-.91,0-1.31,0-6.64,1.52-13.46,2.83-20.45,3.96-.23-.58-.43-.58-.66,0-9.06,2.65-18.1,5.28-27.14,7.88-4.44,4.52-8.69,9.27-12.73,14.27l-1.44-.48c-.05-5.88.73-11.77,2.37-17.67.08-.4-.05-.88,0-1.31,3.28-11.34,9.9-20.86,19.87-28.53,1.01-2.68.76-2.75-1.77-2.63-7.57.35-19.77,17.5-22.07,24.54h-.03v.13c-1.92,1.31-3.16,3.41-3.69,6.31-2.7,10.58-5.43,21.03-8.18,31.39-8.94,8.05-18.58,12.6-30.5,14.01-.13-8-2.02-15.86-5.66-23.51-.43-3.79-1.57-6.82-3.46-9.09l-1.26-5.61h-.71c1.87-1.49,1.44-2.85.2-4.49l.48-13.13-.68-.2c2.22-.91,1.19-5.3-1.77-3.26-2.55,2.4-4.17,5.55-4.82,9.52-.56.28-.58.51,0,.66-3.11,9.7-.38,20.3,3.41,29.39,3.81,10.48,2.37,20.28-6.97,27.17l-7.65,7.42c-2.75,5.28-6.49,9.04-11.24,11.29-.3-.56-.53-.58-.66,0l-1.97.66c-.28-.58-.5-.58-.66,0-5.53,1.29-11.03,2.63-16.51,3.96-.28-.58-.5-.58-.66,0-.58-.35-1.04-.35-1.31,0-.23-.58-.43-.58-.66,0-2.37.83-4.77,1.49-7.27,1.97-.28-.58-.48-.58-.66,0-6.01,2.88-4.07,8.76-2.22,13.74,2.22,4.77,1.24,6.94-2.95,6.51l-2.07.88c-.28-.56-.51-.58-.66,0-1.11.23-1.99.68-2.65,1.31-3.64,2.4-.98,4.47-2.3,6.62-.83,1.36-3.91.81-4.7,4.6-.71,3.46,1.77,4.42,1.77,6.26,0,.35-4.8,4.01-5.33,4.65-3.76,4.44-7.17,12.68-4.39,18.28,5.35,10.78,25.86,12.98,25.58,27.95-.13,5.53-6.44,16.72-9.97,21.11-1.69,2.1-9.95,9.8-12.22,10.23-2.27.43-19.47.51-21.71-.05-5.08-1.24-7.1-1.77-12.52-2.65-6.56-1.09-16.72-4.49-23-3.06-1.99.45-2.4,2.3-2.58,2.35-.23.08-1.94-.68-3.36-.43-1.41.25-2.17,1.39-3.13,1.87-.03.04-.06.06-.08.1.02-.07.04-.12.06-.2-1.74.88-1.72.78-3.31,1.97.11.01.19.02.29.03-.09.02-.17.05-.26.07-7.55,5.55-15.17,11.84-22.45,17.83-.08.09-.18.16-.26.24.06-.09.11-.18.21-.26-1.03.85-2,1.51-3.23,2.59.38-.28.66-.45.9-.57-.31.22-.6.45-.93.64-.2.18-1.24.23-1.99.93-7.52,7.1-9.44,25-14.59,35.63s-13.99,19.27-19.75,29.62c-8.38,15.15-3.31,44.79-2.3,62.54.93,16.92,10.58,9.65,17.4.91s7.5-17.57,12.07-26.21c2.58-4.9,12.15-13.46,15.76-18.91.16-.04.28-.12.42-.19.55-.11,1.13-.24,1.58-.57.07-.35-.08-.94-.01-1.23,2.74-3.71,3.55-8.63,2.44-14.78-1.52-5.55,13.15-7.22,16.13-6.06,2.45.98,3.51,3.06,4.22,5.48.51,1.77.93,3.53,1.16,5.38.03,7.04,1.29,13.48,3.76,19.27.26.48.5.99.74,1.49-.02,0-.03.01-.06.02l.29.44c.11.23.23.46.34.69.38,2.5,5.28,11.94,7.6,12.8,5.58,2.07,1.97-7.47-1.11-8.91-.25-1.94-.76-3.26-1.54-3.89-1.94-7.45-1.67-14.57-.28-22.12.08-5.63.33-7.1,5.33-3.08,5.2,4.67,10.83,8.38,16.84,11.08,19.37-.48,31.31,16.82,40.42,31.71,7.15,15.38,13.15,25.17,28.63,33.66,16.99,9.32,36.31,15.28,54.67,20.73,2.65-1.41,1.51-2.98-3.38-4.7-.18-.08-.48.08-.66,0-5.93-3.64-12.09-6.51-18.48-8.58-.21.02-.4,0-.6,0,.27-.06.5-.11.63-.1v-.03c-1.57-.71-3.11-.91-3.96-1.31.03.07.02.11.03.17-.02-.02-.04-.03-.06-.05-.23-1.72-4.17-3.21-5.93-3.31l-.13-.06.15-.04c-.03-.58-.48-1.04-1.31-1.31h-1.31s0,.09.02.13l-.07-.03-.05-.61c-20.3-11.36-36.18-26.44-45.02-49.24l-1.14-1.01h0s.04-.04.05-.08c-.2-.38-.23-.96-.66-1.31-.02.02-.03.04-.06.06-1.34-3.58-3.31-7.01-5.9-10.29.43-3.81,16.21,3.33,17.95,6.01l.51-.33s.09.08.15.11c.33.79,1,1.15,1.63,1.61.06.09.14.16.19.25,18.66,16.79,48.35,7.88,63.81-8.79,2.15.56-.38,9.22-3.84,9.49-6.69,9.27,6.99,15.25,10,4.57v-.66c-1.57-2.63-2.22-5.05-1.97-7.27v-1.31c.61-1.79.93-3.64.98-5.53,8.05,1.51,13.71-.28,17.47-7.83,6.59,1.94,8.56,1.04,5.86-2.7-3.56,0-6.19-2.7-2.8-5.25,3.59.45,10.33-1.21,4.27-3.96-8.05,1.51-11.49-2.52-9.29-10.4.4-.18.76-.38,1.04-.66,1.04-1.09,5.1-16.13,5.13-18.53s-.91-3.89-3.48-3.08c-1.79.56-9.14,15.1-10.3,18l.38,2.27-.16.34c-.14.25-.27.49-.33.69l-.07.15s0,.07.02.11c-.34.92-.35,1.36-.75,2.64.02.01.04.03.05.04-.03-.01-.05,0-.08-.02-8.46,1.69-3.96,7.32,2.75,8.56-3.23,2.32-3.21,4.95,1.16,5.3-3.59.61-3.61,3.59-.53,5.15-4.17,4.32-7.78,3.81-12.73,1.11-2.83.03-9.92,4.6-9.8,7.57,0,.01-.01.02-.02.04-1.2.83-2.6,2.18-3.25,2.61h-.04l-1.72-.51c-37.27,19.27-60.02-7.73-46.18-44.01,1.34-4.65-1.16-6.51-7.45-5.63-5.71-.83-2.15-12.73,2.25-14.24,1.36,2.7,3.18,4.52,5.86,1.92,2.2,2.42,4.24.81,4.52-2.12,10.5.93,7.04-5.15.56-8.84,3.11-12.25-4.95-14.64-6.21-1.52-1.99-7.75-9.49-9.14-7.15.91-9.77,4.34-15.43,19.95-7.35,28.43l-2.42,4.22c-9.37-1.87-11.41,11.03-3.56,13.46,6.94,2.17,9.14-5.3,9.09-10.63,1.39-2.1,1.72-3.76.98-5.02.03-.02.06-.01.09-.03h1.14s.06,0,.09.03l-.88,1.41c2.42,19.67-23.63,21.89-37.82,18.43-16.06-3.94-35.75-15.17-50.17-23.43-2.25-1.31-8.69-7.75-8.71-10.23-.03-2.47,8.41-18.33,10.55-20.15,2.73-2.32,7.75,1.67,9.39,3.91,8.6,14.85,25.44,21.31,42.16,19.6-.08.02-.14.02-.22.05l-.03.03c-2.47.76-6.39,5.23-7.65,7.52-.96,1.77-3.84,9.27-2.12,10.48,6.44.51,9.75-3.06,11.74-8.81.82-2.38,2.94-8.94-.22-9.42,1.08-.14,2.17-.32,3.25-.53,9.42-1.87,11.82-7.52.68-8.28-11.06.81-20.81-1.54-29.26-7.07l-2.02.05c-.77-.61-1.25-1.77-2.62-1.94,0,.01,0,.03.01.04-.02-.03-.04-.04-.06-.07,1.92-2.12-2.1-4.12-4.14-4.95-1.59-3.96-3.94-7.63-7.07-10.93,4.42-4.72,9.27-7.37,15.93-6.56l10.96.58.83-1.24s.03-.03.05-.04v.04c1.87.25,6.01,1.51,8.58,1.97,1.14.19,2.68,1.14,4.41.7h.18c-1.99,3.96,8.41,3.28,11.44,2.95,4.17-.43,11.26-1.72,12.98-5.58.02-.04.06-.06.08-.1.98-.57,1.79-1.16,2.56-1.71.22-.06.44-.13.66-.18,0-.02,0-.03-.01-.05h.01s-.01-.02-.02-.03c-.02-.06-.03-.1-.04-.15.23-.16.45-.31.68-.45.02.01.03.01.04.02l2.05.33c9.52-4.39,22.32-6.56,30.2,1.69l1.39-.71c.66.83,1.67,1.16,2.65,1.31-.23,2.2,5.98,4.8,8.05,5.2,1.11.23,2.2.18,3.31,0,8.74-2.93,13.21-1.94,20.4,3.99,2.68,2.15,4.85,2.6,6.51,1.39l.11.07c.29.78.93,1.13,1.76,1.17l.1.07v1.69c4.85,5.55,13,14.49,19.57,17.37,9.52.43,13.13,4.24,17.09,12.98l1.62.3c.08,2.9.96,5.1,2.65,6.59l.12.5c.23,1.57-.07,3.2-.07,4.43v10.55c0,3.36-.31,6.3-.08,9.67.03-.12.06-.24.1-.35-.02.37-.04.74-.05,1.12-.02-.26-.03-.51-.05-.76-.07.31-.06.66.04,1.02v.19c-.4,4.67,2.37,10.81,4.72,15.23,1.59,2.98,8.13,11.44,10.6,6.24-2.83-3.89-5.63-7.75-8.38-11.59l-1.01-9.22v-.66c1.59-13.96,1.52-27.65-.28-41.08,6.14-.45,12.17-.18,18.1.81,9.59,1.79,19.42,3.36,29.04,4.62h.08s-.02.02-.03.02c.45,1.01,3.23,2.12,3.96,1.31.02.01.04.01.07.03h-.09c.45.13,1.29.91,2.65,1.31l-.04.1ZM953.51,371.21c.06.28.09.5.13.74-.11-.21-.15-.46-.13-.74ZM829.95,306.45h0v-.04s.01.02.02.03h-.02ZM825.31,307.08s.03-.02.05-.04v.08s-.03-.03-.05-.04ZM826.82,309.26c.08.04.17.08.26.11-.1,0-.19-.03-.26-.11ZM939.48,303.93c-.14-.06-.29-.1-.43-.16h.52l-.08.16h-.01ZM934.94,302.46l-.08.16c-.28-.04-.56-.13-.84-.16h.92ZM985.04,332.81h0ZM984.41,377.35c0-.07.2-.55.45-1.1-.02.46-.04.93-.07,1.39-.21-.04-.38-.1-.38-.29ZM1037.83,349.95c.25-.11.37-.22.4-.32.01.11-.1.22-.35.34h-.01s-.02-.02-.04-.03h0ZM1037.83,349.28s.02.02.04.03c-.02,0-.02-.01-.04-.02h0Z"/>
  <path class="st0" d="M1056.37,372.42l-.03-.03c-1.29-2.35-1.49-5.08-2.75-7.47-.48-.96-6.03-8.46-6.49-8.74-.88-.58-2.37-.15-3.11.53-5.61,5.15,4.7,26.26,9.92,25.45,2.9-.45,2.27-2.85,2.45-5.15.05-.63,0-1.31,0-1.97-.18-.51-.28-.83,0-1.31,0-.43.05-.88,0-1.31h.01Z"/>
  <path class="st0" d="M593.67,418.96c-.23-4.07-3.08-10.71-6.16-13.31-2.5-2.12-5.43,1.24-6.24,3.61-.56,1.64-.58,7.3-.13,8.96.68,2.45,7.5,11.94,9.47,11.59.15-.05,2.35-1.79,2.4-1.94l-.03.03c.38-1.04.76-7.52.68-8.94h.01Z"/>
  <path class="st0" d="M1010.49,177.65c-1.92-2.22-3.06-3-4.8-.15-3.64,5.96-4.47,15.55-2.73,22.22.93,3.46,6.79,14.14,11.16,10.3h-.03c.18-.15,2.05-3.26,2.15-3.48,3.08-7.22-.68-23.05-5.76-28.89h.01Z"/>
  <path class="st0" d="M428.01,223.88h.03c4.37-10.55-.96-21.89-7.93-29.57-1.31-1.41-1.77-4.24-4.82-4.04-2.42.58-3.66,8-3.79,10.15-.45,7.22,3.33,16.89,7.95,22.45,2.35,2.83,6.54,5.86,8.56,1.01h0Z"/>
  <path class="st0" d="M517.11-92.34v-.66c.58-7.68.73-12.62-3.03-19.74-3.41-6.44-6.09-7.73-10.3-1.19-5.15,8.03-6.29,24.8-.81,32.77,6.74,9.85,11.39-6.34,14.14-11.19h0Z"/>
  <path class="st0" d="M796.32,447.69h.03c.23-.1,2.35-3.84,2.47-4.44.78-3.53,1.41-12.93-.2-16.01-3.06-5.83-8,5.91-8.26,8.86-.3,3.31.56,13.91,5.96,11.59h0Z"/>
  <path class="st0" d="M917.75,32.44v-.03c2.05-.38,4.34-8.89,4.57-10.93.51-4.44-.61-15.43-6.87-14.8-4.37.45-5.5,12.68-4.92,16.16.35,2.17,4.34,10.13,7.22,9.59h0Z"/>
  <path class="st0" d="M974.51,86.93c.25.61,2.47,4.72,2.65,4.92.08.08,1.84,1.29,1.97,1.31,5.1,1.36,4.87-2.78,4.65-6.94-.18-3.53-1.74-7.78-5.05-9.47-7.6-3.86-6.19,5.68-4.22,10.18h0Z"/>
  <path class="st0" d="M425.38-11.77c12.6,1.44,1.34-21.16-3.48-23.28-1.79-.78-5,.03-5.66,1.92-2.15,6.29,5.3,16.66,9.14,21.34v.03h0Z"/>
  <path class="st0" d="M767.23-65.93c.93.1,1.59.53,1.97,1.31,2.73,1.54,4.75,2.22,7.93,2.65,1.19-6.14-1.04-13.18-5.5-17.6-1.19-1.19-6.77-5.2-8.28-4.14-.28.23-1.82,5.55-1.77,6.54.25,4.07,2.68,8.51,5.68,11.24h-.03,0Z"/>
  <path class="st0" d="M525.87,453.5c-.61,2.58,2.68,12.85,4.17,15.28.43.66,4.54,5.25,4.9,5.33,4.37.98,3.16-12.83,2.45-15.33-1.51-5.28-9.24-15.25-11.51-5.28h-.01Z"/>
  <path class="st0" d="M1035.92,133.41h.03c1.82.08,3.26.4,4.14-1.46,3.86-8.23-6.82-21.99-14.24-25.07-6.19-2.55-2.88,10.18-1.82,13.05,2.2,5.91,7.45,9.42,11.89,13.51v-.03h0Z"/>
  <path class="st0" d="M378.49,282.99c-2.02-1.52-12.35-7.37-14.19-5.73-4.07,3.64,2.25,10.98,5.43,13.18,1.51,1.06,7.22,3.74,8.79,4.09v-.03c.83.18,8.31-.25,8.58-.68,1.04-1.57-1.39-2.37-1.74-2.85-2.15-2.9-3.84-5.68-6.87-7.98h0Z"/>
  <path class="st0" d="M1045.06,161.39c4.75-2.12,16.36-9.92,17.14-15.25.66-4.49-10.25-3.43-13.1-2.8v-.03s-.06.02-.08.03h-1.91c-.61,0-1.44-.1-1.97,0-.42.35-.85,1.04-1.29,1.3h-.02c-4.01,2.19-6.67,2.82-10.55,5.92-.05.05-.12.12-.17.17-1,.83-1.45,1.4-2.18,2.18-.11.11-.19.19-.3.3-15.71,16.21,4.29,12.75,14.44,8.18h0Z"/>
  <path class="st0" d="M468.99,290.29c.68-1.11,1.97-9.7,1.97-11.29,0-4.49-3.53-22.09-9.77-13.69-2.52,3.38-3.41,12.73-2.65,16.84.58,3,3.38,5.98,3.81,9.06v.03c2.22.68,5.2,1.46,6.64-.96h0Z"/>
  <path class="st0" d="M428.01,399.79c-.3-2.93-2.05-5.08-5-3.66-6.31,3-13.28,13.74-14.49,20.48-.71,3.86-1.94,20.78,5.63,15.23,9.37-6.87,15.02-20.53,13.86-32.04h0Z"/>
  <path class="st0" d="M387.76,371.11c1.06-.35,6.24-5.23,7.25-6.46.83-.98,3.64-5.5,4.29-6.74,1.69-3.26,6.92-16.46,2.83-18.68-2.17-1.19-1.49.23-2.32.83-8.16,6.06-16.31,15.17-15.93,26.06.08,2.52.91,5.96,3.89,5h-.01Z"/>
  <path class="st0" d="M451.82,15.27c-1.04,1.36-6.03,3.41-7.9,5-.63.56-.51,1.69-.86,2.1-.5.58-1.69.43-2.27,1.04-2.5,2.52-7.75,12.88-1.21,13.38,5.83.45,18.48-14.7,16.77-20.43-.43-1.46-2.15-.98-3.23-1.09h.03c-.4-.05-.88,0-1.31,0h-.02Z"/>
  <path class="st0" d="M406.22,123.89c7.57,5.91,16.92,4.72,25.75,4.92.43-1.04.78-1.24.08-2.32-4.17-6.36-13.36-13.18-21.49-12.88s-11.46,4.72-4.34,10.28Z"/>
  <path class="st0" d="M404.78,238.6c-2.3,5.23,1.72,22.04,8.05,19.62h0c3.21-1.24,2.42-11.11,1.69-13.91-1.24-4.72-6.06-14.09-9.75-5.71h.01Z"/>
  <path class="st0" d="M363.49,339.65c.1,3.43,3.31,4.14,6.11,4.39,8.94.76,13.48-4.87,20.12-9.24.01-.01.01-.02.02-.04.4-.25.87-.42,1.29-.64v-.66c-.03-1.52-.15-2.3-1.31-3.31h-.03c-5.11-4.36-26.43,1.69-26.21,9.48v.02Z"/>
  <path class="st0" d="M424.72,32.46c.71.1,2.95-1.19,3.33-1.79,3.06-5.02,3.21-24.37-1.64-27.98-2.95-2.2-4.12,1.24-5.13,3.53-2.88,6.49-4.7,18.51.48,24.19.23.28,2.75,1.99,2.93,2.02v.03h.03Z"/>
  <path class="st0" d="M374.55,308.37v.03h0v-.02h0Z"/>
  <path class="st0" d="M376.73,315.54c3.21-.66,10.98-11.29,11.29-14.57.08-.68-.81-3.64-.96-3.76-1.01-.88-7.22,4.22-8.23,5.23-1.54,1.54-2.9,4.18-4.26,5.95h0v.03h-.66c-.05.2.05.43,0,.66-.1.53,0,1.32,0,1.95-.1,1.92-1.23,5.35,2.83,4.51h0Z"/>
  <path class="st0" d="M528.68,520.31c-5.28.45-19.27,7.93-9.39,11.36,1.09.38,5.18,1.72,5.76,1.84,3.91.81,19.64-4.85,18.89-7.95-.86-3.51-11.89-5.53-15.25-5.25h-.01Z"/>
  <path class="st0" d="M485.42,60.16l-2.63-.66v1.31c1.01-.08,2.55.45,2.63-.66h0Z"/>
  <path class="st0" d="M644.29,370.91c1.34-1.72,2.4-10.91.91-12.73-2.8-3.41-5.91,1.34-6.49,4.17-.58,2.83,1.34,6.82,1.82,9.42,1.24.51,2.95.2,3.76-.86h0Z"/>
  <path class="st0" d="M422.73,322.91v-.03c.71-.83,1.26-5.71,1.11-7.04-1.04-9.9-15.4-19.67-10.81-2.05.66,2.58,6.97,12.47,9.7,9.12Z"/>
  <path class="st0" d="M815.23,444.26c1.39,1.04,6.72,4.24,8.13,4.75h-.03c3.46,1.21,10.86,2.32,9.12-3.48-.51-1.69-2.58-1.97-2.98-2.63-1.77-2.83-2.07-4.44-5.23-6.99-2.85-2.32-16.26-10.93-19.09-6.06,1.67,5.38,5.5,11.06,10.07,14.42h.01Z"/>
  <path class="st0" d="M543.52,392.5c-6.87,10.07,3.96,23.94,14.52,26.13-.13-1.62,1.69-1.34,1.99-2.95,1.54-8.05-8.43-21.74-16.51-23.18Z"/>
  <path class="st0" d="M975.82,93.16c-.13-.83-.48-1.19-1.31-1.31-.2-.08-.48.08-.66,0h0c-5.18-2.42-7.52-4.67-13.86-2.65-.03.01-.04.04-.07.05-.36.06-1.08-.19-1.22,0-.3.4.13,2.47-.03,3.28.18.35.98.86,1.31,1.31v-.02c3.87,5.2,9.72,8.76,16.84,7.92,7.12-.83.98-5.25-1.01-8.58h0Z"/>
  <path class="st0" d="M816.42,425.88c.35-.05,4.12-1.16,4.32-1.29h.03c1.64-.96,4.44-5.25,1.79-6.79-3.36-1.92-12.09-2.85-15-.13-5.58,5.2,3.91,8.89,8.86,8.21h0Z"/>
  <path class="st0" d="M629.98,361.19s-.04-.04-.05-.06c-1.32-2.3-4.02-3.33-6.34-1.98-.06.02-.13.03-.19.05-5.02,3.26,4.9,12.75,7.95,14.85,1.01.71,1.84.63,2.6,1.01.04.02.09.04.13.06-.04-.01-.09-.02-.13-.03,1.16.56,3.36,1.92,4.62,1.97,3.81.12,1.02-3.07.14-4.4-.05-.08-.08-.16-.14-.25-2.2-3.86-4.97-8.56-8.58-11.21h0Z"/>
  <path class="st0" d="M950.45,510.39c.76.68,4.9,3.21,5.61,3.31,1.51.18,3.69-1.46,3.96-3,1.44-7.63-7.07-21.97-15.83-21.41-.71,6.34,1.46,16.72,6.26,21.11h0Z"/>
  <path class="st0" d="M409.83,272.69c-1.26,6.79,3.38,16.56,8.94,20.5,6.39,4.54,7.12-1.54,6.26-6.62-.56-3.36-3.11-10.71-4.82-13.63-3.46-5.93-8.58-9.87-10.38-.25Z"/>
  <path class="st0" d="M729.69-60.33c-6.69,2.5-1.34,7.57,3.11,8.74.51.15,6.34.88,6.77.83h0c1.69-.18,7.47-2.42,8.31-3.96.51-.93-.05-1.06-.33-1.69-2.42-5.5-12.93-5.76-17.85-3.91h-.01Z"/>
  <path class="st0" d="M872.16,15.27h-.59c-.2.05-.45-.05-.66,0l-.62,1.24s-.05.03-.06.04c-.23.18-.43.45-.66.66,0,0-.02.02-.02.03h-.63c-.23.05-.53-.08-.66,0-1.19.76-1.88,2.18-2.38,2.93-.11.1-.2.21-.27.36-1.52,1.57-6.99,5.18-3.31,6.94.63.3,7.83.45,8.94.38,5.73-.38,10.66-1.46,14.72-5.76,1.89-1.99,5.63-6.54,2.75-8.81-.2,0-.45.03-.66,0h-.03c-4.62-.76-6.62-.66-11.21,0-.2.03-.45-.03-.66,0-.93,1.29-2.68,1.26-3.96,1.97,0,0-.03.02-.04.03h.01Z"/>
  <path class="st0" d="M494.01,294.53h.03c8,1.46,3.84-6.51.98-9.9-2.37-2.8-12.75-10.76-16.03-7.1-3.91,4.37,10.71,16.21,15.02,16.99h0Z"/>
  <path class="st0" d="M678.15-97.65v.02c1.77-1.72,1.92-1.92,3.31-3.96h-.05s.03-.02.05-.03c2.2-3.21,7.02-11.41,7.78-15,.71-3.28-.33-5.78-.51-8.76v-.66c-3.21-11.29-5.55-13.61-13.89-4.32-2.88,3.21-7.95,10.53-7.9,14.87v.04c-.64.52-.58,1.18-.65,1.92h0c-.53,5.26-.73,11.55,1.84,16.32,3.59,6.72,5.83,3.66,10.02-.45h0Z"/>
  <path class="st0" d="M992.94,412.77c-2.12-1.49-6.44,5.45-7.12,6.97-1.87,4.19-2.68,9.24-2.05,13.76.28,2.15,1.79,8.31,3.94,8.91v.05c5.53,1.57,7.5-9.39,7.93-13.21.06-.11.06-.21.03-.3.07-.68.08-1.03.06-1.29.08-.29.06-.62-.07-.98,0-.05,0-.08-.02-.13v.06h0c-.08-2.53-.71-12.46-2.7-13.85h0Z"/>
  <path class="st0" d="M612.33,462.36c1.39,2.75,10.66,8.08,13.69,8.74,3.53.76,11.01,1.77,8.74-3.46-1.29-2.95-5.93-5.96-8.74-7.42-.05-.02-.09-.05-.14-.07-.28-.24-.45-.7-1.77-1.19-.02-.02-.04-.03-.06-.05-.18-.08-.45.05-.66,0h-.03l-1.31-1.31h-.68c-.6-.1-1.29.04-1.94,0v-.02c-3.61-.23-10.05-1.14-7.1,4.8v-.02Z"/>
  <path class="st0" d="M493.35-66.61c2.1.76,6.41,1.16,7.63-1.31.88-1.84-2.05-6.24-3-7.93-.03-.03-.05-.06-.08-.1-2.25-4.01-1.82-3.12-5.12-5.76-.03-.03-.05-.05-.08-.08-1.19-.96-1.54-1.84-3.38-2.88-14.06-7.83-11.87,4.19-4.87,11.46,1.19,1.24,7.5,6.09,8.91,6.59h-.01Z"/>
  <path class="st0" d="M677.83-88.41c-1.39,1.84-4.7,7.9-2.8,9.77,1.11,1.09,8.11,1.16,9.75.81h.03c2.27-.5,8.84-3.76,11.01-5.15,12.62-8,6.59-17.45-7.57-12.85-3.71,1.19-8.08,4.34-10.4,7.42h-.02Z"/>
  <path class="st0" d="M413.31-4.37c-4.24.73-13,7.32-12.37,12.02.08.5,1.11,2.27,1.34,2.35h-.03c1.41.51,7.7-.25,9.37-.86,2.27-.83,9.17-6.54,9.65-8.86,1.11-5.45-4.01-5.33-7.95-4.65h0Z"/>
  <polygon class="st0" points="452.42 449.01 452.4 449 452.4 449.01 452.42 449.01"/>
  <path class="st0" d="M432.15,435.93c2.6,5.33,11.31,11.59,16.97,12.8.27.07,3.06.27,3.29.28,7.54-1.29-2.3-12.52-5.26-14.87-2.27-1.82-9.92-6.11-12.57-6.64-6.06-1.21-4.22,4.75-2.42,8.43h0Z"/>
  <path class="st0" d="M1058.99,350.94c-.81.1-6.44,1.79-6.64,2.1-3.94,5.4,7.8,9.12,11.41,9.75.96.15,5.13.4,5.81.4v-.03c3.31-.15,6.19-.96,8.46-3.61-3.46-6.26-12.17-9.59-19.04-8.61h0Z"/>
  <path class="st0" d="M1058.69,87.86c4.44-3.06,6.59-9.39,6.26-14.52-.03-.43.08-.91,0-1.31v-.03c-1.14-7.02-4.32-5-7.93-1.31l-.1.13c-.95,1-1.1,1.28-1.78,2.4l-.09.12c-2.55,4.17-3.21,6.16-2.47,11.39.63,4.6,1.94,5.98,6.11,3.13Z"/>
  <path class="st0" d="M488.08-.59c.28-.18,2.05-5.28,2.05-6.26,0-6.14-3.99-16.08-8.84-19.95-.76-.61-5.61-2.3-6.41-1.89-4.54,2.27.03,14.57,1.87,17.98,1.31,2.45,7.98,12.42,11.34,10.13h0Z"/>
  <path class="st0" d="M494.01.07c1.34-.38,5.1-4.9,5.86-6.36,5.33-10.28-3.36-12.04-7.42-2.8-1.11,2.55-4.04,10.68,1.57,9.17h0Z"/>
  <path class="st0" d="M545.42,539.88c-.43-3.28-1.46-8.23-5.83-6.67-6.09,2.17-12.27,14.47-13.53,20.45-.96,4.65-.53,10.58,1.11,15.02.28.71,2.27,4.95,2.5,5.1v.03c2.47,1.64,8.05-5.81,9.22-7.63,1.26-1.97,6.21-12.12,6.01-13.79-.08-.73-1.72.05-1.36-1.04,3.18-.58,2.25-8.76,1.89-11.49v.02Z"/>
  <path class="st0" d="M492.6,539.65c2.8-4.04,3.99-11.94,3.11-16.77-.35-1.87-2.65-7.42-4.65-7.7-2.2-.3-5.93,8.41-6.21,10.78-.66,5.71.35,9.95,3.23,14.8h0c2.58,1.44,2.42,1.89,4.52-1.11Z"/>
  <path class="st0" d="M367.13,242.19c-3.66-15.43-13.53,5.05-14.22,11.92-.25,2.4,1.54,11.26,3.81,12.02h.03c.43.15,4.09-1.31,4.65-1.79,4.87-4.27,7.2-15.93,5.73-22.14h0Z"/>
  <path class="st0" d="M615.49,495.87c5.73-.73,12.83-5.96,15.98-10.73,9.87-14.92-6.46-6.94-12.7-3.13-2.2,1.34-5.02,2.5-5.93,5.28-5.05,4.01-3.74,9.42,2.65,8.58h0Z"/>
  <path class="st0" d="M513.15,123.52c.46.19,2.25.07,2.8-.13,2.07-.68,6.97-8.76,5.13-10.76-4.77-5.13-10.6,9.7-7.93,10.91v-.02Z"/>
  <path class="st0" d="M676.31-32.73c1.11.23,2.2-.18,3.38-.18.53,0,1.11.63,1.11.63v-.03c4.9-.18.71-8.48-1.67-10.55-2.75-2.4-10.15-4.97-12.88-1.67-3.74,4.54,5.91,10.96,10.05,11.79h.01Z"/>
  <path class="st0" d="M459.04,26.46s-.02.03-.03.04c.03,2.25-.48,6.21,2.58,6.92.35.08,2.58-.23,2.73-.33.28-.18,1.06-2.55,1.16-3.13.71-4.29-.15-6.77-2.47-10.07v.03h-.05s-.07-.05-.12-.07c.05,0,.1-.02.17.02-.13-.15-.25-2.78-2.6-1.26-.78.51.08,2.88-.05,3.46-.18.83-1.36.23-1.31,4.4h-.01Z"/>
  <path class="st0" d="M506.5,101.61s.04.08.05.13c-.2-.28-.41-.57-.62-.86.14.09.27.2.38.34-1.09-2.25-.43-2.6-3.67-3.42-.02,0-.03-.02-.05-.03h.03c-1.77-.43-2.27-.91-3.99.98-3.36,3.71-1.11,9.92.56,13.99,1.67,4.07,4.29,7.25,6.72,10.78,2.4.61,4.14-1.49,4.57-3.69.68-3.5-2.06-14.69-3.9-18.08h.01c-.03-.06-.05-.1-.08-.16v.02ZM503.36,98.26c-.23-.15-.45-.32-.7-.43.31.08.54.23.7.43Z"/>
  <path class="st0" d="M506.32,101.23c.06.12.12.24.19.38-.05-.14-.11-.27-.19-.38Z"/>
  <path class="st0" d="M742.19-67.93c.23,0,3.71-1.36,3.99-1.64,3.51-3.38-5.08-13.51-8.38-15.43-2.25-1.31-9.29-3.99-11.49-2.45-2.93,2.02,2.73,11.16,4.65,13.05,1.36,1.34,9.77,6.36,11.24,6.46h-.01Z"/>
  <path class="st0" d="M882.17,74.98c0-3.91-1.11-5.91-5.15-4.42-.63.25-6.01,4.42-6.54,5-4.27,4.52-8.11,14.37-7.5,20.58.3,3.08.81,3.38,3.96,2.95v-.03c6.44-6.34,15.23-14.29,15.23-24.09h0Z"/>
  <path class="st0" d="M894.04,65.09c.28-3.64-1.51-10.58-3.71-13.48-5.58-7.32-8.33,5.68-7.4,10.71.61,3.23,6.64,10.96,9.75,7.75.18-.18,1.31-4.29,1.36-4.97h0Z"/>
  <path class="st0" d="M940.88,108.36c4.7,1.69,15.2,3.81,18.86-.61,3.03-3.64-2.27-6.46-5.5-7.8-5.13-2.15-12.04-1.72-17.32-.18h0c-4.54,4.12,1.11,5.76,3.96,8.58h0Z"/>
  <path class="st0" d="M964.31,112.3c-4.44,10.53,9.32,3.18,12.32-2.85,2.3-4.57,2.75-6.36-3.11-5.76-1.99.2-1.82.73-2.95,1.34-.03.02-.05.04-.08.06-1.19.6-2.56.45-2.57,2.59h0v.02c-1.58,1.5-2.71,2.46-3.61,4.6h0Z"/>
  <path class="st0" d="M801.25,114.25c4.52-1.51,7.24-3.66,10.24-7.21v.02c.91-1.11,1.16-1.31,1.97-2.65-.03,0-.05.01-.08.02.03-.01.05-.03.08-.04,2.25-3.71,5-10.5-2.8-8.41-3.43.91-9.67,9.09-10.4,12.37-.05.2,0,.43,0,.66-.13,1.01-.28,5.15.98,5.25h.01Z"/>
  <path class="st0" d="M743.98,220.72c-2.17.63-2.15,3.08-1.06,4.75,1.44,2.17,5.35,2.12,7.2,3.69h.03c3.06-.2,6.92-.88,9.9-1.64.81-.2,4.39-.81,3.94-1.97-1.34-3.38-16.64-5.81-20-4.82h-.01Z"/>
  <path class="st0" d="M821.55,111.82c-4.29-1.77-8.58-.66-12.68.83-3.71,1.34-12.85,6.31-10.58,10.88h-.03c4.85.91,11.36.43,15.98-1.51,2.73-1.14,13.69-7.57,7.3-10.2h.01Z"/>
  <path class="st0" d="M772.56,211.33v.03h.03c.1.05.66-.1,1.11.2.53.35.33,1.49,1.84,1.79.98.18,2.68.15,3.36-.68.25-.33.98-7.42.98-8.26-.08-6.03-5.43-18.46-9.01-23.38-.98-1.34-4.19-5.3-5.38-6.03-4.17-2.55-7.07,6.41-6.49,9.97,1.21,7.55,7.45,21.64,13.56,26.36Z"/>
  <path class="st0" d="M843.19,87.89v.03c-2.2-.4-4.92-1.84-6.99-1.92-3.16-.1-11.44,1.01-8.76,5.48,1.84,3.08,8.36,6.03,11.77,6.72,4.85.96,8.43.93,13.23-.38-.35-.91-.35-2.63-.66-3.31-.01,0-.02-.02-.04-.03h.01c-.63-1.41-1.67-1.79-2.65-2.65h0c-1.71-1.5-3.67-2.44-5.25-3.95-.2,0-.45.05-.66,0h0Z"/>
  <path class="st0" d="M774.83,161.74c-4.57,4.04,5.2,12.57,8.94,13.94,4.01-3.51-4.82-17.57-8.94-13.94Z"/>
  <path class="st0" d="M919.36,97.23c-5.61-2.7-9.49-2.3-15.45-1.41l-.03.03c-.2.03-.43-.03-.66,0-1.49,1.64-4.7,2.12-5.93,3.96v-.03c-1.54,2.28-.66,2.5.59,3.89.03.03.04.07.07.1,1.54,1.74,7.4,3.96,9.62,3.89.78-.03,1.44-.91,1.92-.91,2.25-.08,3.59.63,6.31,0,.58-.15,5.28-3.31,5.58-3.66,2.27-2.68.53-4.65-2.02-5.86h0Z"/>
  <path class="st0" d="M919.97,109.78c-2.15-.4-3.69,2.58-4.47,2.93s-5.81.23-3.03,3.56h-.03s.02.01.04.02c.19.22.3.52.61.62v.02c.53.1,3.61.13,3.96,0,.15-.05,2.35-2.05,2.65-2.35.53-.53.08-1.19.25-1.44.4-.56,3.33-2.73,0-3.36h.02Z"/>
  <path class="st0" d="M548.55,239.79c-2.32.28-12.25,2.3-14.09,3.08s-6.77,4.49-8.11,6.09h0c-1.74,2.1-.76,1.57-1.31,3.31-1.49,4.65-2.4,10.73,4.8,9.09,3.11-.68,2.47-2.75,3.76-4.17,2.93-3.21,7.57-6.51,11.24-8.89,1.04-.66,2.25-1.34,3.31-1.97v-.03c1.62-.93,8.48-3.81,8.58-4.29.68-2.93-6.64-2.4-8.18-2.22h0Z"/>
  <path class="st0" d="M940.85,200.78c-.03-.23.05-.48,0-.66-1.82-4.32-3.81-8.48-5.93-12.55-.45-.83-.83-1.26-1.31-1.97-.93-2.75-5.63-7.95-8.69-8.81-3.84-1.09-12.25,1.74-7.5,6.54l14.87,14.75c6.29,8.89,9.14,9.8,8.56,2.7h0Z"/>
  <path class="st0" d="M562.31,282.59c-1.14.13-1.19,1.97-2.93,1.36-.58,4.19,5.81,2.35,8.89,2.65,1.36.13,3.13.48,4.44.83,2.45.68,11.39,5.78,12.07,5.78,3.28.03.88-3.21-.05-4.27h.03c-4.57-5.25-15.83-7.25-22.45-6.36h0Z"/>
  <path class="st0" d="M905.53,188.03c-1.62,5.91,2.07,10.23,6.77,13.21,9.9,6.31,18.48-1.26,4.14-3.76v-.03c-.2-.08-.48.08-.66,0-5.05-3.81-6.82-5.38-4.77-11.92-2.1-2.6-4.67-.45-5.48,2.5h0Z"/>
  <path class="st0" d="M539.86,263.6c1.01,1.11,8.16-1.21,8.26-1.74.76-3.59-10.4-3.51-12.9,1.62-1.79,3.66-1.31,8.05,3,9.27v.03c1.06-3.03-.28-6.59,1.64-9.17h0Z"/>
  <path class="st0" d="M555.42,250.62c-.71.35-4.6,4.42-4.85,5.13-.23.61.03,2.32.23,2.47v-.03c.86.68,6.01-5.05,7.27-5.58,1.67-1.99-.81-2.88-2.65-1.99Z"/>
  <path class="st0" d="M551.43,260.85c2.58-.45,6.97,1.24,8.58-1.31-2.6-.91-6.64-1.11-8.58,1.31Z"/>
  <path class="st0" d="M923.05,349.98h-.03v-.04l.02.04c.05-.13,1.04-.1.66-1.31h-.98c-.81.45-1.14,1.39-1.67,1.97-4.09,4.49-7.7,9.49-11.44,14.29-1.21,1.57-2.98,1.72-4.01,4.9-.51,1.54-1.46,9.27,1.92,8.53,1.62-.35.63-6.31,1.49-8.41.96-2.35,8.38-9.72,10.6-13.16,1.62-2.5,2.37-4.04,3.43-6.82h.01Z"/>
  <path class="st0" d="M951.4,361.87c-.23-5.08-8.56-13.51-13.16-14.27-3.76-.61-4.22,3.31-1.82,5.48,1.62,1.49,8.79,6.39,10.78,7.37,1.36.66,2.83.81,4.19,1.41h0Z"/>
  <path class="st0" d="M920.07,340.74c2.17-.15,2.05-2.83,1.04-4.37-2.52-3.81-14.52-5.45-18.81-4.9-.71.1-.43,1.39-.23,1.87h0c4.85,1.01,13.63,7.7,18,7.4Z"/>
  <path class="st0" d="M915.8,394.57c2.1-1.34-2.05-3.38-3-4.29-2.05-1.94-4.24-5.2-6.26-6.62-2.83-4.52-7.5-2.63-11.87-2.63.88,3.66,4.54,5.2,7.25,7.25h0c2.68,2.05,10.23,8.64,13.89,6.29h-.01Z"/>
  <path class="st0" d="M899.95,348.66h.01c.5,1.39.83,1.72,1.96,2.63v-.03s.02.03.02.05c1.44,1.16,4.24,2.47,6.09,2.47,2.2-.05,7.04-1.94,6.46-4.77-.28-1.26-.91-.71-1.67-.35-3.41,1.64-3.91,3.03-8.05.81-2.95-1.59-3.66-4.22-3.51-7.4-2.93,0-2.02,4.7-1.31,6.59h0Z"/>
  <path class="st0" d="M894.64,390.28c.73,2.75,2.78,4.97,5.35,6.19,1.46.68,6.39,2.22,4.47-.83h-.03l-9.8-5.35h.01Z"/>
  <path class="st0" d="M929.01,359.22c-1.64,1.57-1.36,5.81-.68,7.93h0c.71,2.2,1.74,4.12,4.07,4.85,3.79,1.21,10.58,1.41,11.77-3.51-.58-.51-12.32,4.04-13.86-2.65,0-.02-.01-.04-.02-.06.02.01.03.02.05.03-.15-.68.71-8.51-1.31-6.59h-.02Z"/>
  <path class="st0" d="M653.11,113.29c16.26,10.13,34.36-18.96,22.19-31.76v.03c-1.54-1.64-4.7-3.36-6.99-2.55-.71.25-4.47,2.98-4.95,3.66-1.57,2.3-1.79,6.84-3.71,8.84-.73.76-5.5,4.19-6.54,4.7-3.74,1.79-6.06.43-6.59,5.98-.38,3.86,3.43,9.14,6.59,11.11h0Z"/>
  <path class="st0" d="M646.47,85.54c.33,3.64,4.65.4,5.98-1.31,2.65-3.43,2.32-6.67.48-10.38-3.21-6.46-12.15-16.29-17.02-21.79-2.02-2.27-4.6-4.22-6.06-6.94-3.84-1.36-.08,4.12.78,5.48,4.01,6.39,19.37,21.69,19.59,27.8.18,4.72-4.01,4.37-3.76,7.15h.01Z"/>
  <path class="st0" d="M652.8,29.08c-3.51-2.68-13.89,1.54-17.17,4.37-1.79,1.54-3.03,2.4-2.95,5.18,4.6,3.89,7.83-1.79,11.56-3.48,1.72-.78,13.31-2.47,8.56-6.06h0Z"/>
  <path class="st0" d="M613.89,55.95c.91-1.62,1.36-5.1-.81-5.58-3.66-.81-8.13,5.96-9.44,8.86-.78,1.69-4.01,10.15-1.72,10.83,1.34.3,1.51-.33,2.22-1.06,1.57-1.62,8.66-11.08,9.75-13.03v-.03h0Z"/>
  <path class="st0" d="M647.17,46.63c-1.19,2.1-2.3,9.72-.68,10.88,2.52,1.84,2.4-9.92,5.93-11.54,4.37-1.97,9.29,3.53,10.55,2.3h.03c-.93-7.98-12.09-8.33-15.83-1.64Z"/>
  <path class="st0" d="M615.61,68.55c5.4-2.6,11.34,4.62,12.4,3.48,1.94-2.12-4.52-6.19-6.14-6.74-4.04-1.36-8-.56-10.38,3.11-1.49,2.27-2.27,12.2.66,12.55,2.45.3.71-3.38.71-4.65.03-2.17.73-6.77,2.75-7.75Z"/>
  <path class="st0" d="M852.78,134.07c-.3-.4-8.36-1.72-9.62-3.28h-.66c-5.2-.48-13.43-3.74-16.49,1.64l22.09,10.3c3.99,1.69,5.23-7.88,4.67-8.66h0Z"/>
  <path class="st0" d="M827.99,151.26h0c-1.49-1.34-1.82-1.34-3.31,0-.18,7.15,7.32,13.74,14.19,13.91,1.19.03,7.1-.93,7.52-1.44.33-.4-.05-1.87.08-2.58-7.5,1.16-16.64-1.77-18.48-9.9h0Z"/>
  <path class="st0" d="M1045.16,350.63l1.31.66c-.48-.61-.5-.61-1.31-.66Z"/>
</svg>